<svg width="226" height="76" viewBox="0 0 226 76" fill="none" xmlns="http://www.w3.org/2000/svg">
<path d="M207.42 0.587711H18.5885C17.9002 0.587711 17.2201 0.587711 16.5335 0.591453C15.9589 0.595194 15.3889 0.606044 14.8087 0.61521C13.5483 0.629985 12.2908 0.740485 11.0473 0.945748C9.80545 1.15548 8.60253 1.5509 7.47919 2.11863C6.35727 2.69118 5.33214 3.43515 4.441 4.32353C3.54517 5.20934 2.79842 6.23322 2.22946 7.3558C1.65892 8.47626 1.26331 9.67693 1.0563 10.9163C0.847316 12.1541 0.734857 13.4062 0.719937 14.6613C0.702481 15.2349 0.700604 15.8103 0.691406 16.384V59.6219C0.700604 60.2027 0.702481 60.7654 0.719937 61.3466C0.734871 62.6016 0.84733 63.8535 1.0563 65.0912C1.26275 66.3313 1.65838 67.5326 2.22946 68.6534C2.79815 69.7724 3.54501 70.7922 4.441 71.6732C5.32877 72.5655 6.35456 73.3099 7.47919 73.8781C8.60252 74.4473 9.80531 74.8451 11.0473 75.0581C12.291 75.2617 13.5484 75.3722 14.8087 75.3888C15.3887 75.4015 15.9589 75.4088 16.5337 75.4088C17.2201 75.4125 17.9002 75.4125 18.5885 75.4125H207.42C208.094 75.4125 208.78 75.4125 209.454 75.4088C210.026 75.4088 210.613 75.4015 211.185 75.3888C212.443 75.3731 213.698 75.2626 214.939 75.0581C216.185 74.8436 217.392 74.4459 218.521 73.8781C219.645 73.3096 220.669 72.5652 221.556 71.6732C222.45 70.7888 223.199 69.7697 223.774 68.6534C224.341 67.5318 224.733 66.3306 224.936 65.0912C225.146 63.8533 225.262 62.6016 225.285 61.3464C225.292 60.7654 225.292 60.2027 225.292 59.6219C225.307 58.9423 225.307 58.2664 225.307 57.5758V18.4263C225.307 17.7411 225.307 17.0617 225.292 16.384C225.292 15.8103 225.292 15.2349 225.285 14.6611C225.262 13.4059 225.146 12.1541 224.936 10.9162C224.732 9.67759 224.341 8.47714 223.774 7.35599C222.616 5.10571 220.778 3.27398 218.521 2.11844C217.392 1.5521 216.185 1.15679 214.939 0.945561C213.698 0.739425 212.443 0.628918 211.185 0.615023C210.613 0.605856 210.026 0.59482 209.454 0.591266C208.78 0.587524 208.095 0.587711 207.42 0.587711Z" fill="black"/>
<path d="M16.5427 73.7757C15.9708 73.7757 15.4127 73.7684 14.8453 73.7557C13.6699 73.7404 12.4972 73.6385 11.3369 73.4507C10.255 73.265 9.20688 72.9195 8.2272 72.4256C7.25647 71.936 6.37109 71.2939 5.60497 70.524C4.82769 69.7632 4.18057 68.8807 3.68925 67.9116C3.19256 66.9363 2.84883 65.8908 2.67001 64.8117C2.47697 63.6521 2.37256 62.4796 2.35767 61.3042C2.34566 60.9097 2.33008 59.5964 2.33008 59.5964V16.3837C2.33008 16.3837 2.3466 15.0904 2.35767 14.7103C2.37197 13.5368 2.47582 12.3662 2.66832 11.2085C2.84749 10.1263 3.19152 9.07785 3.6885 8.0993C4.17794 7.13088 4.82138 6.24776 5.59389 5.48417C6.36558 4.71334 7.25384 4.06792 8.22626 3.57146C9.20372 3.0793 10.2498 2.73633 11.3296 2.55403C12.4937 2.36439 13.6705 2.26191 14.85 2.24744L16.5437 2.22424H209.446L211.159 2.248C212.328 2.26184 213.494 2.36351 214.648 2.55216C215.738 2.73679 216.796 3.08222 217.784 3.57708C219.732 4.57755 221.317 6.16041 222.317 8.10379C222.806 9.07564 223.145 10.1156 223.322 11.1884C223.517 12.3556 223.626 13.5355 223.648 14.7185C223.654 15.2483 223.654 15.8173 223.654 16.3837C223.669 17.0852 223.669 17.7528 223.669 18.4261V57.5755C223.669 58.2551 223.669 58.9183 223.654 59.5868C223.654 60.1952 223.654 60.7524 223.646 61.3259C223.624 62.4879 223.517 63.6468 223.325 64.7931C223.15 65.8801 222.808 66.9337 222.312 67.9171C221.817 68.8756 221.174 69.7504 220.405 70.5092C219.639 71.2832 218.752 71.9291 217.779 72.4219C216.793 72.9195 215.737 73.2662 214.648 73.4504C213.488 73.6392 212.315 73.7412 211.139 73.7555C210.578 73.7686 210.016 73.7752 209.455 73.7755L207.42 73.7792L16.5427 73.7757Z" fill="white"/>
<path d="M47.6119 37.7932C47.6329 36.1696 48.0657 34.5776 48.8699 33.1655C49.6742 31.7533 50.8238 30.5668 52.2118 29.7164C51.33 28.4614 50.1668 27.4286 48.8144 26.7C47.4621 25.9714 45.9579 25.567 44.4213 25.5191C41.1436 25.1762 37.9659 27.4739 36.2955 27.4739C34.593 27.4739 32.0213 25.5532 29.2519 25.61C27.4607 25.6677 25.715 26.1868 24.185 27.1168C22.6549 28.0467 21.3927 29.3558 20.5212 30.9164C16.7461 37.4299 19.562 47.0024 23.1781 52.2677C24.9873 54.8458 27.1017 57.7256 29.8685 57.6234C32.576 57.5116 33.5873 55.9028 36.8553 55.9028C40.0932 55.9028 41.0418 57.6234 43.8647 57.5585C46.77 57.5116 48.6005 54.969 50.3462 52.3664C51.6461 50.5294 52.6465 48.499 53.31 46.3505C51.6222 45.6391 50.1819 44.4483 49.1686 42.9266C48.1553 41.4048 47.6139 39.6195 47.6119 37.7932ZM42.2799 22.0566C43.864 20.1615 44.6445 17.7256 44.4554 15.2662C42.0354 15.5196 39.7999 16.6723 38.1945 18.4947C37.4096 19.385 36.8084 20.4207 36.4253 21.5427C36.0422 22.6647 35.8848 23.8509 35.962 25.0335C37.1725 25.0459 38.3701 24.7845 39.4645 24.2688C40.5589 23.7531 41.5214 22.9968 42.2799 22.0566ZM80.0944 51.3557H71.2096L69.0759 57.6343H65.3125L73.7282 34.4049H77.6381L86.0537 57.6343H82.2264L80.0944 51.3557ZM72.1297 48.4583H79.1724L75.7006 38.2687H75.6034L72.1297 48.4583ZM104.228 49.1673C104.228 54.4301 101.402 57.8114 97.1363 57.8114C96.0558 57.8678 94.9812 57.6197 94.0356 57.0957C93.0899 56.5716 92.3115 55.7928 91.7894 54.8484H91.7087V63.237H88.2202V40.6983H91.5968V43.5152H91.661C92.2071 42.5753 92.9987 41.8005 93.9516 41.2733C94.9044 40.746 95.9828 40.4861 97.0721 40.5211C101.385 40.5211 104.228 43.9191 104.228 49.1673ZM100.643 49.1673C100.643 45.7385 98.8649 43.4842 96.152 43.4842C93.4866 43.4842 91.694 45.7858 91.694 49.1671C91.694 52.5797 93.4866 54.865 96.152 54.865C98.8649 54.865 100.643 52.6274 100.643 49.1673ZM122.934 49.1673C122.934 54.4301 120.106 57.8114 115.841 57.8114C114.76 57.8678 113.686 57.6197 112.74 57.0957C111.794 56.5716 111.016 55.7928 110.494 54.8484H110.413V63.237H106.925V40.6983H110.301V43.5152H110.365C110.912 42.5753 111.703 41.8005 112.656 41.2733C113.609 40.746 114.687 40.4861 115.777 40.5211C120.09 40.5211 122.934 43.9191 122.934 49.1673ZM119.347 49.1673C119.347 45.7385 117.569 43.4842 114.856 43.4842C112.191 43.4842 110.398 45.7858 110.398 49.1671C110.398 52.5797 112.191 54.865 114.856 54.865C117.569 54.865 119.347 52.6274 119.347 49.1673ZM135.294 51.1621C135.553 53.4656 137.798 54.9782 140.867 54.9782C143.807 54.9782 145.922 53.4656 145.922 51.3885C145.922 49.5854 144.646 48.5059 141.626 47.766L138.605 47.0408C134.324 46.0104 132.337 44.0156 132.337 40.7785C132.337 36.7705 135.842 34.0177 140.817 34.0177C145.744 34.0177 149.121 36.7705 149.235 40.7785H145.713C145.502 38.4604 143.579 37.061 140.769 37.061C137.959 37.061 136.036 38.4769 136.036 40.5374C136.036 42.1798 137.265 43.1462 140.269 43.8858L142.837 44.5143C147.62 45.6414 149.605 47.556 149.605 50.9536C149.605 55.2996 146.133 58.0215 140.608 58.0215C135.439 58.0215 131.949 55.3634 131.723 51.1619L135.294 51.1621ZM157.137 36.6905V40.6983H160.368V43.4512H157.137V52.7879C157.137 54.2384 157.784 54.9142 159.205 54.9142C159.588 54.9076 159.971 54.8807 160.352 54.8338V57.5705C159.713 57.6893 159.064 57.7431 158.414 57.731C154.974 57.731 153.632 56.4433 153.632 53.1586V43.4512H151.161V40.6983H153.632V36.6905H157.137ZM162.238 49.1673C162.238 43.8385 165.387 40.4901 170.298 40.4901C175.226 40.4901 178.36 43.8385 178.36 49.1673C178.36 54.5105 175.242 57.8444 170.298 57.8444C165.356 57.8444 162.238 54.5105 162.238 49.1673ZM174.806 49.1673C174.806 45.5119 173.125 43.3544 170.298 43.3544C167.472 43.3544 165.791 45.5282 165.791 49.1673C165.791 52.8373 167.472 54.9782 170.298 54.9782C173.125 54.9782 174.806 52.8373 174.806 49.1673ZM181.236 40.6983H184.563V43.5809H184.644C184.869 42.6806 185.398 41.8849 186.142 41.3277C186.887 40.7705 187.801 40.4857 188.731 40.5211C189.133 40.5197 189.534 40.5632 189.927 40.6507V43.9024C189.419 43.7479 188.89 43.6769 188.359 43.6924C187.852 43.6719 187.347 43.7609 186.878 43.9534C186.409 44.1458 185.988 44.4372 185.642 44.8073C185.297 45.1775 185.036 45.6178 184.878 46.0979C184.719 46.5781 184.667 47.0867 184.724 47.5889V57.6343H181.236V40.6983ZM206.01 52.6599C205.54 55.7345 202.536 57.8444 198.692 57.8444C193.748 57.8444 190.68 54.5435 190.68 49.2476C190.68 43.9354 193.765 40.4901 198.546 40.4901C203.247 40.4901 206.204 43.7088 206.204 48.8439V50.0349H194.201V50.245C194.146 50.8683 194.224 51.4962 194.431 52.087C194.638 52.6779 194.968 53.2181 195.401 53.6718C195.833 54.1256 196.357 54.4824 196.939 54.7187C197.52 54.9549 198.145 55.0652 198.773 55.0422C199.597 55.1191 200.424 54.9289 201.132 54.4996C201.839 54.0704 202.388 53.4252 202.697 52.6599H206.01ZM194.218 47.6053H202.714C202.745 47.0449 202.66 46.4841 202.464 45.958C202.267 45.432 201.964 44.9521 201.572 44.5484C201.181 44.1448 200.71 43.8262 200.189 43.6125C199.668 43.3988 199.109 43.2948 198.546 43.3068C197.978 43.3035 197.414 43.4122 196.889 43.6269C196.363 43.8415 195.885 44.1578 195.483 44.5574C195.081 44.957 194.762 45.4321 194.544 45.9553C194.327 46.4784 194.216 47.0392 194.218 47.6053ZM71.6935 16.9201C72.4248 16.8677 73.1587 16.9778 73.8422 17.2424C74.5256 17.507 75.1417 17.9194 75.6458 18.45C76.15 18.9806 76.5297 19.616 76.7575 20.3106C76.9854 21.0051 77.0557 21.7414 76.9635 22.4663C76.9635 26.032 75.0296 28.0819 71.6935 28.0819H67.6479V16.9199L71.6935 16.9201ZM69.3875 26.5032H71.4992C72.0218 26.5343 72.5447 26.4489 73.03 26.2532C73.5153 26.0575 73.9507 25.7564 74.3045 25.3719C74.6582 24.9874 74.9215 24.5291 75.0752 24.0303C75.2289 23.5316 75.269 23.005 75.1927 22.4889C75.2635 21.9748 75.2193 21.4515 75.0633 20.9564C74.9073 20.4613 74.6433 20.0067 74.2903 19.6253C73.9373 19.2438 73.504 18.9448 73.0215 18.7498C72.539 18.5548 72.0191 18.4686 71.4992 18.4974H69.3875V26.5032ZM78.9286 23.8664C78.8754 23.3129 78.939 22.7544 79.1151 22.2267C79.2912 21.6991 79.5761 21.2139 79.9514 20.8024C80.3267 20.3909 80.7841 20.0621 81.2944 19.8371C81.8047 19.6121 82.3565 19.4959 82.9145 19.4959C83.4725 19.4959 84.0243 19.6121 84.5346 19.8371C85.0449 20.0621 85.5023 20.3909 85.8776 20.8024C86.2529 21.2139 86.5378 21.6991 86.7139 22.2267C86.89 22.7544 86.9536 23.3129 86.9004 23.8664C86.9547 24.4206 86.892 24.98 86.7164 25.5086C86.5408 26.0372 86.2562 26.5234 85.8808 26.9358C85.5054 27.3483 85.0475 27.6778 84.5367 27.9034C84.0258 28.1289 83.4732 28.2455 82.9145 28.2455C82.3557 28.2455 81.8032 28.1289 81.2923 27.9034C80.7815 27.6778 80.3236 27.3483 79.9482 26.9358C79.5728 26.5234 79.2881 26.0372 79.1125 25.5086C78.9369 24.98 78.8743 24.4206 78.9286 23.8664ZM85.1848 23.8664C85.1848 22.0405 84.3617 20.9728 82.9173 20.9728C81.4673 20.9728 80.6517 22.0405 80.6517 23.8664C80.6517 25.7069 81.4675 26.7664 82.9173 26.7664C84.3617 26.7664 85.1848 25.6996 85.1848 23.8664ZM97.4975 28.0817H95.7668L94.0201 21.8779H93.8881L92.1486 28.0817H90.4347L88.1049 19.6583H89.7967L91.3109 26.0857H91.4355L93.1733 19.6583H94.7735L96.5113 26.0857H96.6432L98.1499 19.6583H99.8181L97.4975 28.0817ZM101.778 19.6585H103.383V20.9965H103.508C103.719 20.5159 104.076 20.113 104.528 19.8439C104.98 19.5749 105.505 19.4532 106.03 19.4957C106.442 19.4649 106.855 19.5267 107.239 19.6765C107.623 19.8264 107.968 20.0604 108.249 20.3613C108.53 20.6621 108.739 21.0222 108.862 21.4147C108.984 21.8071 109.016 22.222 108.956 22.6286V28.0815H107.288V23.0461C107.288 21.6926 106.697 21.0193 105.464 21.0193C105.185 21.0064 104.906 21.0538 104.647 21.1582C104.388 21.2626 104.154 21.4217 103.963 21.6244C103.771 21.8272 103.625 22.0688 103.536 22.3328C103.447 22.5968 103.416 22.8769 103.446 23.1539V28.0817H101.778V19.6585ZM111.614 16.3701H113.282V28.0817H111.614V16.3701ZM115.601 23.8664C115.548 23.3128 115.611 22.7542 115.787 22.2265C115.963 21.6988 116.248 21.2136 116.624 20.802C116.999 20.3904 117.456 20.0616 117.967 19.8366C118.477 19.6115 119.029 19.4953 119.587 19.4953C120.145 19.4953 120.697 19.6115 121.207 19.8366C121.718 20.0616 122.175 20.3904 122.551 20.802C122.926 21.2136 123.211 21.6988 123.387 22.2265C123.563 22.7542 123.627 23.3128 123.574 23.8664C123.628 24.4205 123.565 24.9798 123.389 25.5082C123.213 26.0367 122.928 26.5226 122.553 26.9349C122.178 27.3472 121.72 27.6766 121.209 27.902C120.698 28.1275 120.146 28.2439 119.587 28.2439C119.029 28.2439 118.476 28.1275 117.965 27.902C117.454 27.6766 116.997 27.3472 116.621 26.9349C116.246 26.5226 115.961 26.0367 115.785 25.5082C115.61 24.9798 115.547 24.4205 115.601 23.8664ZM121.857 23.8664C121.857 22.0405 121.034 20.9728 119.589 20.9728C118.139 20.9728 117.324 22.0405 117.324 23.8664C117.324 25.7069 118.14 26.7664 119.589 26.7664C121.034 26.7664 121.857 25.6996 121.857 23.8664ZM125.33 25.6996C125.33 24.1833 126.462 23.3092 128.473 23.1849L130.763 23.0534V22.3263C130.763 21.4367 130.173 20.9344 129.032 20.9344C128.101 20.9344 127.456 21.275 127.271 21.8706H125.656C125.826 20.4237 127.192 19.4959 129.109 19.4959C131.228 19.4959 132.424 20.5472 132.424 22.3263V28.0817H130.818V26.8979H130.686C130.418 27.3225 130.042 27.6687 129.596 27.901C129.15 28.1334 128.65 28.2436 128.147 28.2205C127.792 28.2572 127.434 28.2195 127.094 28.1097C126.755 27.9999 126.443 27.8205 126.177 27.583C125.912 27.3455 125.699 27.0552 125.553 26.7308C125.407 26.4064 125.331 26.0551 125.33 25.6996ZM130.763 24.9798V24.2755L128.699 24.407C127.535 24.4847 127.007 24.8794 127.007 25.6218C127.007 26.38 127.667 26.8212 128.574 26.8212C128.84 26.8481 129.109 26.8213 129.364 26.7426C129.619 26.6638 129.856 26.5347 130.06 26.3629C130.264 26.1911 130.432 25.9801 130.552 25.7425C130.673 25.5049 130.745 25.2455 130.763 24.9798ZM134.616 23.8664C134.616 21.2047 135.989 19.5187 138.124 19.5187C138.653 19.4944 139.177 19.6205 139.636 19.8822C140.095 20.1439 140.47 20.5304 140.716 20.9965H140.841V16.3699H142.509V28.0815H140.911V26.7505H140.779C140.513 27.2135 140.125 27.5952 139.657 27.8543C139.189 28.1133 138.659 28.2399 138.125 28.2203C135.974 28.2203 134.616 26.5343 134.616 23.8664ZM136.339 23.8664C136.339 25.6529 137.184 26.7281 138.597 26.7281C140.003 26.7281 140.872 25.6375 140.872 23.8735C140.872 22.1181 139.994 21.012 138.597 21.012C137.193 21.012 136.339 22.0944 136.339 23.8664ZM149.41 23.8664C149.357 23.3129 149.421 22.7544 149.597 22.2267C149.773 21.6991 150.058 21.2139 150.433 20.8024C150.809 20.3909 151.266 20.0621 151.776 19.8371C152.287 19.6121 152.838 19.4959 153.396 19.4959C153.954 19.4959 154.506 19.6121 155.016 19.8371C155.527 20.0621 155.984 20.3909 156.359 20.8024C156.735 21.2139 157.02 21.6991 157.196 22.2267C157.372 22.7544 157.435 23.3129 157.382 23.8664C157.437 24.4206 157.374 24.98 157.198 25.5086C157.023 26.0372 156.738 26.5234 156.363 26.9358C155.987 27.3483 155.529 27.6778 155.019 27.9034C154.508 28.1289 153.955 28.2455 153.396 28.2455C152.838 28.2455 152.285 28.1289 151.774 27.9034C151.263 27.6778 150.805 27.3483 150.43 26.9358C150.055 26.5234 149.77 26.0372 149.594 25.5086C149.419 24.98 149.356 24.4206 149.41 23.8664ZM155.667 23.8664C155.667 22.0405 154.844 20.9728 153.399 20.9728C151.949 20.9728 151.134 22.0405 151.134 23.8664C151.134 25.7069 151.949 26.7664 153.399 26.7664C154.844 26.7664 155.667 25.6996 155.667 23.8664ZM159.62 19.6585H161.226V20.9965H161.351C161.562 20.5159 161.919 20.113 162.371 19.8439C162.823 19.5749 163.348 19.4532 163.873 19.4957C164.285 19.4649 164.698 19.5267 165.082 19.6765C165.466 19.8264 165.811 20.0604 166.092 20.3613C166.373 20.6621 166.582 21.0222 166.705 21.4147C166.827 21.8071 166.859 22.222 166.799 22.6286V28.0815H165.131V23.0461C165.131 21.6926 164.54 21.0193 163.307 21.0193C163.028 21.0064 162.749 21.0538 162.49 21.1582C162.231 21.2626 161.997 21.4217 161.806 21.6244C161.614 21.8272 161.468 22.0688 161.379 22.3328C161.29 22.5968 161.259 22.8769 161.289 23.1539V28.0817H159.621L159.62 19.6585ZM176.224 17.5613V19.6968H178.056V21.097H176.224V25.4282C176.224 26.3106 176.589 26.697 177.42 26.697C177.632 26.6963 177.844 26.6834 178.056 26.6585V28.0433C177.756 28.0967 177.452 28.1251 177.148 28.1282C175.293 28.1282 174.554 27.4778 174.554 25.8539V21.097H173.213V19.6966H174.554V17.5615L176.224 17.5613ZM180.334 16.3701H181.988V21.012H182.12C182.341 20.5269 182.708 20.1217 183.169 19.8517C183.63 19.5817 184.164 19.4599 184.697 19.503C185.106 19.4808 185.515 19.5489 185.895 19.7024C186.274 19.8558 186.615 20.0909 186.893 20.3909C187.171 20.6908 187.38 21.0482 187.503 21.4376C187.627 21.827 187.662 22.2387 187.608 22.6434V28.0817H185.938V23.0534C185.938 21.7079 185.309 21.0266 184.13 21.0266C183.844 21.0032 183.555 21.0425 183.285 21.1417C183.016 21.241 182.771 21.3978 182.568 21.6012C182.365 21.8046 182.21 22.0497 182.112 22.3193C182.014 22.5889 181.977 22.8766 182.002 23.1621V28.0817H180.334V16.3701ZM197.334 25.8072C197.107 26.5771 196.616 27.243 195.947 27.6885C195.277 28.134 194.472 28.3307 193.671 28.2442C193.115 28.2589 192.561 28.1526 192.05 27.9328C191.538 27.7129 191.081 27.3848 190.709 26.9711C190.338 26.5574 190.061 26.0682 189.898 25.5372C189.736 25.0063 189.691 24.4465 189.767 23.8965C189.693 23.3449 189.738 22.7838 189.901 22.2513C190.063 21.7187 190.338 21.2272 190.708 20.8099C191.077 20.3926 191.533 20.0593 192.043 19.8325C192.553 19.6058 193.106 19.4909 193.664 19.4957C196.016 19.4957 197.435 21.097 197.435 23.742V24.3221H191.466V24.4153C191.44 24.7244 191.479 25.0355 191.581 25.3287C191.682 25.6219 191.844 25.8908 192.056 26.118C192.268 26.3452 192.525 26.5257 192.811 26.648C193.097 26.7704 193.406 26.8318 193.717 26.8284C194.116 26.8761 194.521 26.8045 194.879 26.6227C195.237 26.4408 195.532 26.157 195.728 25.8072H197.334ZM191.466 23.0927H195.735C195.756 22.81 195.718 22.5261 195.622 22.2591C195.527 21.9921 195.376 21.7481 195.18 21.5426C194.984 21.3371 194.747 21.1747 194.485 21.0659C194.222 20.957 193.939 20.9042 193.655 20.9106C193.366 20.907 193.08 20.961 192.813 21.0694C192.546 21.1778 192.303 21.3384 192.099 21.5418C191.895 21.7451 191.734 21.9871 191.625 22.2535C191.517 22.5199 191.463 22.8052 191.466 23.0927Z" fill="black"/>
</svg>
