<svg width="480" height="494" viewBox="0 0 480 494" fill="none" xmlns="http://www.w3.org/2000/svg">
<mask id="mask0_3780_6530" style="mask-type:alpha" maskUnits="userSpaceOnUse" x="0" y="0" width="480" height="494">
<rect width="480" height="494" fill="#D9D9D9"/>
</mask>
<g mask="url(#mask0_3780_6530)">
<path d="M157.227 134.151C157.227 134.151 157.179 134.27 157.156 134.34C157.132 134.411 157.109 134.482 157.085 134.553C156.47 136.35 155.997 137.509 155.761 137.769C154.248 139.424 143.775 140.937 143.775 140.937V168.554C143.775 168.554 143.562 169.074 142.948 169.855C141.505 171.746 137.818 175.175 129.732 176.239C129 176.333 128.219 176.404 127.415 176.475C125.004 176.641 122.238 176.617 119.094 176.31C98.5973 174.3 98.1009 166.426 98.1009 166.426L94.6021 102.728C94.3893 103.153 90.5595 110.672 81.7414 108.308C72.6633 105.896 70.1573 91.1417 69.59 86.9803C68.9989 82.8188 71.1739 76.9077 76.8241 75.5836C82.4742 74.2358 91.9778 86.5783 91.9778 86.5783C91.9778 86.5783 91.836 85.7035 91.5996 84.2848C91.0086 80.6199 89.8501 73.361 89.1409 67.9936C88.7153 64.9908 88.4554 62.579 88.479 61.7751C88.5972 58.8905 91.3631 30.4223 91.3631 30.4223L102.971 19.4276L123.089 17.0631L135.453 21.3191L140.56 27.6086L142.948 30.5642L155.785 44.0653C155.785 44.0653 159.78 63.5485 160.938 66.0548C162.097 68.5611 160.111 73.2191 160.111 73.2191C160.111 73.2191 167.605 86.5547 168.102 91.8747C168.527 96.3199 160.726 124.126 157.25 134.222L157.227 134.151Z" fill="#F8C89E"/>
<g style="mix-blend-mode:multiply" opacity="0.3">
<path d="M159.921 39.2418L155.76 43.9944C155.76 43.9944 152.592 43.7579 144.011 41.0861C135.429 38.4142 127.438 30.6352 117.958 28.6254C108.455 26.6156 93.8921 33.7799 95.476 36.168C97.06 38.5325 99.3531 47.3756 97.1073 51.6079C94.885 55.864 94.2467 71.0675 94.2467 71.0675L89.1166 67.97C88.6911 64.9672 88.431 62.5554 88.4546 61.7515C88.5728 58.8669 91.3389 30.3987 91.3389 30.3987L102.946 19.404L123.065 17.0395L140.536 27.585L159.921 39.2891V39.2418Z" fill="#B834C0"/>
</g>
<g style="mix-blend-mode:multiply" opacity="0.3">
<path d="M157.085 134.553C156.47 136.35 155.997 137.509 155.761 137.769C154.248 139.424 143.775 140.937 143.775 140.937V168.554C143.775 168.554 143.562 169.074 142.948 169.855C139.07 168.956 133.491 166.923 128.574 162.312C120.087 154.32 114.579 146.825 114.579 146.825L129.709 176.239C128.976 176.333 128.196 176.404 127.392 176.475C119.756 160.397 104.389 127.956 101.221 121.36C96.9661 112.493 94.6021 102.751 94.6021 102.751C94.3893 103.177 90.5595 110.696 81.7414 108.331C72.6633 105.92 70.1573 91.1653 69.59 87.0039C68.9989 82.8424 71.1739 76.9313 76.8241 75.6072C82.4742 74.2594 91.9778 86.6019 91.9778 86.6019C91.9778 86.6019 91.836 85.7271 91.5996 84.3084L95.3821 88.5408C95.3821 88.5408 96.635 100.032 102.143 111.689C107.652 123.346 123.586 136.161 136.257 138.147C148.622 140.062 155.808 137.603 157.085 134.648V134.553Z" fill="#B834C0"/>
</g>
<path d="M163.539 41.488C161.222 43.285 157.842 43.7106 154.177 43.2377C148.125 42.4575 141.269 39.2182 137.061 35.4823C130.3 29.4766 114.697 19.2384 105.217 23.4945C95.7134 27.7505 93.7275 32.3612 94.1058 35.2458C94.484 38.1068 98.4794 47.3992 95.146 55.7221C92.8528 61.4441 95.0515 81.1164 95.477 90.0777C95.6661 94.1446 94.0585 92.5368 94.0585 92.5368C94.0585 92.5368 89.7558 82.7006 85.5005 79.6032C81.2451 76.5057 77.9118 74.6851 74.2002 76.6239C74.2002 76.6239 64.7437 65.8184 65.8312 56.5733C66.9187 47.3283 71.0087 40.424 76.3988 36.0971C81.8125 31.7701 89.4721 30.1859 89.4721 30.1859C89.4721 30.1859 86.6353 14.6987 90.4651 9.18947C94.295 3.70392 109.614 -5.4702 125.43 1.52861C141.246 8.52742 153.563 28.3416 159.236 29.6657C164.91 31.0135 166.4 22.3832 166.4 22.3832C166.4 22.3832 169.638 36.7355 163.539 41.488Z" fill="#3F222B"/>
<g style="mix-blend-mode:multiply" opacity="0.3">
<path d="M90.3249 100.694C90.3249 100.694 86.5897 84.7576 83.1618 82.937C79.7338 81.1163 73.6818 83.9773 74.0364 88.8481C74.391 93.6953 79.0246 105.092 90.3014 100.718L90.3249 100.694Z" fill="#B834C0"/>
</g>
<path d="M144.554 47.6593C144.554 47.6593 143.065 48.4632 142.805 50.2129C142.545 51.9626 150.985 54.2798 153.349 55.6985C155.713 57.1172 157.084 59.7654 157.084 59.7654C157.084 59.7654 156.398 53.6414 152.899 52.0809C149.401 50.5203 145.027 48.8888 144.531 47.6357L144.554 47.6593Z" fill="#332738"/>
<path d="M124.507 44.3019C124.507 44.3019 125.807 48.7471 120.252 49.1017C114.696 49.4801 110.393 50.7332 108.691 51.8445C107.013 52.9795 105.074 55.5804 105.074 55.5804C105.074 55.5804 107.013 50.2603 108.691 48.8416C110.37 47.3993 118.006 45.5314 121.245 44.9166L124.483 44.3019H124.507Z" fill="#332738"/>
<path d="M126.184 71.0439C126.184 71.0439 122.78 67.3789 119.187 66.9533C115.617 66.5277 108.619 71.0439 108.619 71.0439C108.619 71.0439 112.945 69.7671 117.035 68.9868C121.125 68.2065 126.184 71.0439 126.184 71.0439Z" fill="#332738"/>
<path d="M148.811 71.3985C148.811 71.3985 152.049 69.3887 154.437 68.9868C156.801 68.5848 158.432 70.5709 158.432 70.5709C158.432 70.5709 154.508 69.5069 148.811 71.3749V71.3985Z" fill="#332738"/>
<g style="mix-blend-mode:multiply" opacity="0.3">
<path d="M129.683 85.9873C129.683 85.9873 138.596 84.2376 141.835 84.1193C145.073 84.0011 148.407 85.5617 149.825 87.4296C151.244 89.2975 146.752 89.5103 137.674 88.8719C128.596 88.2335 129.683 85.9636 129.683 85.9636V85.9873Z" fill="#B834C0"/>
</g>
<path d="M153.609 99.2047C153.609 99.2047 150.914 107.338 142.805 108.19C134.673 109.064 124.342 104.477 115.713 92.0403C115.878 92.1349 118.172 93.4354 121.458 94.9723C126.351 97.2658 133.467 100.056 139.188 100.198C144.838 100.34 148.786 99.9849 151.103 99.6539C152.782 99.4175 153.609 99.2047 153.609 99.2047Z" fill="#711F16"/>
<path d="M151.104 99.6538C151.104 100.647 150.986 102.373 150.418 103.059C149.615 104.052 138.929 104.666 133.373 103.059C127.818 101.427 122.191 97.8805 121.624 96.7692C121.317 96.1308 121.34 95.4451 121.458 94.9722C126.352 97.2657 133.468 100.056 139.189 100.198C144.839 100.339 148.787 99.9848 151.104 99.6538Z" fill="#F5F4F0"/>
<g style="mix-blend-mode:multiply" opacity="0.3">
<path d="M94.7422 103.011C95.0732 103.673 95.9006 105.329 97.1063 107.646C96.2552 106.18 95.4751 104.619 94.7422 103.011Z" fill="#B834C0"/>
</g>
<g style="mix-blend-mode:multiply" opacity="0.3">
<path d="M143.751 140.914V151.79C138.857 150.419 125.736 146.257 117.817 139.046C110.583 132.449 101.481 116.016 97.1309 107.693C112.852 135.546 143.751 140.914 143.751 140.914Z" fill="#B834C0"/>
</g>
<path d="M146.469 85.0178C146.469 85.0178 142.994 75.5363 142.167 73.7866C141.339 72.0369 140.417 70.169 140.417 70.169C140.417 70.169 141.505 81.1165 141.67 82.6297C141.836 84.143 139.354 84.3558 139.354 84.3558C139.354 84.3558 143.987 83.5046 146.469 85.0178Z" fill="#FFE9A9"/>
<g style="mix-blend-mode:multiply" opacity="0.8">
<path d="M154.177 43.2377C148.125 42.4574 141.269 39.2181 137.061 35.4822C130.3 29.4765 114.697 19.2384 105.217 23.4944C95.7134 27.7504 93.7275 32.3611 94.1058 35.2458C94.484 38.1068 98.4794 47.3991 95.146 55.722C92.8528 61.444 95.0515 81.1164 95.477 90.0777C95.6661 94.1446 94.0585 92.5367 94.0585 92.5367C94.0585 92.5367 89.7558 82.7006 85.5005 79.6031C81.2451 76.5057 77.9118 74.685 74.2002 76.6239C74.2002 76.6239 64.7437 65.8183 65.8312 56.5732C66.9187 47.3282 71.0087 40.424 76.3988 36.097C81.8125 31.77 89.4721 30.1858 89.4721 30.1858C89.4721 30.1858 92.8055 32.6922 93.893 31.841C94.9804 31.0134 99.094 25.386 106.966 17.8906C114.839 10.3953 133.326 16.5192 137.818 28.6489C142.31 40.755 154.177 43.2613 154.177 43.2613V43.2377Z" fill="#B834C0"/>
</g>
<path d="M222.501 539.018C220.657 539.136 218.789 539.231 216.945 539.326C209.475 539.751 201.957 540.129 194.415 540.461C189.072 540.697 183.73 540.91 178.363 541.075C166.212 541.477 154.084 541.737 142.098 541.785C140.348 541.785 138.599 541.785 136.873 541.808C135.195 541.808 133.54 541.808 131.861 541.808L129.426 525.139L125.951 541.761C125.62 541.761 125.289 541.761 124.958 541.761C120.987 541.714 117.133 541.643 113.398 541.548C110.372 541.477 107.417 541.359 104.509 541.241C76.5417 540.035 55.3122 537.032 39.1891 533.202C33.2552 531.783 28.007 530.27 23.397 528.709C23.1842 528.638 22.9951 528.567 22.806 528.496C22.3804 510.385 22.0494 495.725 21.9549 486.976C21.9076 481.845 21.9076 478.748 22.0022 478.204C22.9951 472.695 42.9953 381.285 42.9953 381.285C42.9953 381.285 71.2698 379.772 103.563 379.748C106.637 379.748 109.757 379.748 112.901 379.772C121.412 379.842 130.041 380.032 138.363 380.386C143.705 380.599 148.93 380.906 153.918 381.285C158.386 381.639 162.642 381.971 166.637 382.278C203.304 385.233 220.373 387.267 220.373 387.267L224.605 481.845L225.834 509.226L226.33 520.504L227.134 538.734C225.598 538.829 224.037 538.924 222.501 539.018Z" fill="#1F2D6F"/>
<path d="M113.28 175.458C113.28 175.458 129.096 177.87 143.753 172.385C158.41 166.899 183.068 362.606 183.068 362.606L180.396 381.285C180.396 381.285 132.76 385.635 107.133 381.285C81.483 376.934 99.4737 253.344 99.4737 253.344L113.28 175.458Z" fill="#29E7D3"/>
<path d="M46.6374 324.632L44.5097 346.811L24.0131 395.495C24.0131 395.495 21.1289 403.605 17.2518 415.498C10.9633 434.769 2.00341 463.97 -1.70821 484.683C-4.02502 497.616 -4.16685 507.405 -3.03209 514.924C-3.55219 514.475 -4.04871 514.049 -4.49789 513.624C-10.5027 508.067 -11.2592 503.906 -11.2592 503.906C-23.1032 480.805 -4.4033 441.082 -4.4033 441.082C-4.4033 441.082 -15.7746 443.943 -28.9898 441.531C-29.108 412.236 -28.186 377.572 -26.7676 368.611C-25.3018 359.201 -23.5997 329.408 -22.8432 314.701C-22.7723 313.425 -22.725 312.29 -22.6541 311.273C-22.4886 308.175 -22.394 306.331 -22.394 306.331L-18.9424 302.383L-18.0441 301.342L-16.011 299.001H31.9092L37.583 308.861L39.4979 312.171L42.6894 317.728L46.6847 324.656L46.6374 324.632Z" fill="#F7C296"/>
<g style="mix-blend-mode:multiply" opacity="0.3">
<path d="M46.639 324.632L44.5113 346.811L24.0147 395.495C24.0147 395.495 21.1305 403.605 17.2534 415.499C10.9649 434.769 2.00502 463.97 -1.7066 484.683C-4.02341 497.616 -4.16525 507.405 -3.03049 514.924C-3.55059 514.475 -4.04711 514.049 -4.49628 513.624C-5.13459 506.649 -5.58376 496.813 -4.70904 485.676C-2.95962 463.923 3.54167 423.869 6.85139 391.192C10.1848 358.515 23.3764 330.662 23.3764 330.662C23.3764 330.662 6.40217 330.922 -2.20311 327.281C-10.832 323.663 -22.8652 314.678 -22.8652 314.678C-22.7943 313.401 -22.747 312.266 -22.6761 311.249C-22.5106 308.152 -22.4161 306.308 -22.4161 306.308L-18.9645 302.359L-18.0661 301.319L-16.033 298.978H31.8871L37.5609 308.838L39.4758 312.148L42.6673 317.704L46.6627 324.632H46.639Z" fill="#B834C0"/>
</g>
<path d="M273.657 374.759C273.657 375.776 273.61 376.816 273.586 377.88C272.995 401.974 270.962 438.505 268.763 457.373C268.314 461.133 267.676 465.673 266.896 470.662C266.517 473.05 266.116 475.533 265.69 478.11C262.404 497.688 257.534 521.805 253.704 536.914C247.25 537.387 240.701 537.86 234.106 538.285C232.427 538.404 230.749 538.498 229.07 538.616C228.408 538.664 227.77 538.687 227.108 538.735C225.571 538.829 224.011 538.924 222.474 539.018C222.049 531.476 222.214 525.446 226.304 520.505C227.084 519.559 228.006 518.637 229.094 517.762C231.529 515.823 234.035 513.435 236.233 510.196C236.233 510.196 236.304 510.077 236.446 509.912C241.529 502.275 245.004 489.861 242.356 467.21C242.144 465.342 241.884 463.426 241.6 461.44C241.553 461.038 241.482 460.636 241.411 460.234C241.293 459.431 241.174 458.627 241.032 457.799C240.985 457.563 240.962 457.326 240.914 457.09C240.843 456.593 240.749 456.097 240.678 455.6C240.442 454.205 240.205 452.81 239.945 451.391C239.898 451.108 239.85 450.824 239.803 450.54C239.567 449.24 239.307 447.892 239.047 446.568C238.905 445.788 238.739 445.031 238.598 444.251C238.456 443.47 238.29 442.714 238.125 441.934C238.125 441.815 238.077 441.673 238.054 441.555C237.77 440.113 237.463 438.694 237.155 437.252C236.943 436.235 236.73 435.242 236.517 434.225C236.304 433.28 236.092 432.31 235.902 431.364C235.808 430.986 235.737 430.584 235.642 430.182C235.477 429.402 235.288 428.645 235.122 427.865C234.933 427.085 234.768 426.281 234.579 425.501C234.413 424.744 234.224 424.011 234.058 423.254C234.058 423.231 234.058 423.207 234.058 423.183C233.869 422.427 233.704 421.67 233.515 420.913C233.184 419.542 232.876 418.171 232.545 416.799C232.049 414.719 231.553 412.709 231.056 410.723C230.961 410.392 230.891 410.084 230.82 409.753C230.583 408.784 230.347 407.814 230.11 406.869C229.992 406.396 229.874 405.923 229.756 405.45C229.685 405.166 229.614 404.859 229.543 404.599C229.425 404.126 229.307 403.629 229.188 403.156C228.905 402.092 228.645 401.052 228.385 400.059C228.266 399.633 228.172 399.208 228.054 398.806C227.983 398.498 227.888 398.191 227.817 397.907C227.746 397.647 227.699 397.387 227.628 397.151C227.486 396.607 227.344 396.063 227.203 395.543C227.108 395.188 227.013 394.857 226.919 394.526C226.801 394.1 226.706 393.675 226.588 393.273C226.47 392.847 226.375 392.445 226.257 392.043C226.139 391.641 226.044 391.239 225.95 390.861C225.855 390.506 225.76 390.175 225.666 389.844C225.666 389.773 225.619 389.726 225.619 389.655C225.43 388.946 225.24 388.26 225.051 387.598L224.909 387.102C224.815 386.794 224.744 386.487 224.649 386.179C224.555 385.825 224.437 385.47 224.366 385.115C224.295 384.879 224.224 384.619 224.177 384.406C224.153 384.312 224.129 384.241 224.106 384.146C224.058 384.004 224.035 383.839 223.987 383.697C223.656 382.515 223.396 381.569 223.207 380.859C223.136 380.599 223.065 380.363 223.018 380.174C222.947 379.961 222.9 379.772 222.876 379.677C222.876 379.654 222.876 379.63 222.876 379.606V379.559C222.876 379.535 222.876 379.512 222.876 379.512L205.973 331.253L205.24 309.689L208.692 304.44L210.819 301.224L212.593 298.529L221.032 285.761L236.683 286.73L263.704 288.385L267.345 288.598L270.135 292.216L273.066 296.046C273.066 296.046 273.042 298.458 272.995 302.336C272.995 302.501 272.995 302.667 272.995 302.832C272.995 303.258 272.995 303.707 272.995 304.18C272.995 306.497 272.948 309.216 272.948 312.172C272.853 327.328 272.877 348.821 273.61 356.505C273.917 359.721 273.941 366.294 273.775 374.735L273.657 374.759Z" fill="#F7C296"/>
<g style="mix-blend-mode:multiply" opacity="0.3">
<path d="M205.146 309.689L205.879 331.253L222.806 379.512C222.806 379.512 238.575 434.509 242.381 467.21C245.029 489.861 241.553 502.275 236.471 509.912C236.873 509.368 237.866 508.186 239.355 507.335C241.293 506.223 249.521 511.307 250.041 511.614C249.828 511.401 248.126 509.746 246.376 508.659C244.509 507.5 241.364 505.561 241.364 505.561C241.364 505.561 245.62 489.459 245.218 468.368C244.816 447.254 240.915 408.169 239.639 376.391C238.362 344.612 227.274 316.924 227.274 316.924C227.274 316.924 243.658 318.177 252.192 315.175C260.75 312.172 272.901 304.204 272.901 304.204C272.949 299.262 272.996 296.093 272.996 296.093L267.275 288.645L220.986 285.808L205.194 309.713L205.146 309.689Z" fill="#B834C0"/>
</g>
<path d="M122.948 285.832C118.952 358.279 99.9687 459.218 99.9687 459.218C95.1459 486.645 91.1506 488.868 58.8335 488.206C26.5401 487.544 16.8709 487.544 16.209 484.872C15.547 482.2 14.5305 444.558 16.54 422.899C18.5495 401.241 28.2895 317.563 28.2895 317.563C28.2895 317.563 14.0577 318.296 2.56822 316.806C-8.92125 315.293 -27.1484 312.053 -28.1649 306.804C-28.5196 304.889 -27.9522 301.011 -26.7701 295.739C-24.737 286.635 -20.9072 273.371 -17.101 259.019C-11.0962 236.367 -0.6942 205.132 6.79996 200.143C12.4265 196.384 48.2187 180.235 65.8075 172.408C66.0203 172.314 66.1386 172.266 66.1386 172.266C71.8124 169.736 75.5004 168.105 75.5004 168.105C75.5004 168.105 74.673 155.266 79.6612 146.612C81.6943 143.065 84.9094 141.245 87.9591 140.299C92.4272 138.927 96.6117 139.471 96.6117 139.471C96.6117 139.471 97.6282 158.08 98.7866 160.775C99.354 162.076 103.137 163.589 107.51 165.126C112.262 166.804 117.699 168.507 120.442 169.926C125.69 172.668 126.919 213.408 122.924 285.855L122.948 285.832Z" fill="#EF9B23"/>
<g style="mix-blend-mode:multiply" opacity="0.3">
<path d="M124.84 192.648C124.84 192.648 118.457 199.009 104.721 197.519C90.9858 196.029 80.6074 186.406 80.6074 186.406C80.6074 186.406 88.1017 196.644 99.473 199.269C110.844 201.893 125.052 197.637 125.052 197.637L124.84 192.648Z" fill="#B834C0"/>
</g>
<g style="mix-blend-mode:multiply" opacity="0.3">
<path d="M46.6345 269.209C46.6345 269.209 45.9962 280.393 44.8378 294.438C43.5612 310.186 41.6463 329.551 39.2585 340.782C34.7668 362.015 19.873 391.216 19.873 391.216L28.3601 317.61L28.4783 316.522C29.7785 316.404 30.8897 316.239 31.7644 316.049C38.1238 314.678 44.1286 288.835 44.8851 282.947C45.0978 281.197 45.0978 277.627 44.6487 273.087L46.6345 269.209Z" fill="#B834C0"/>
</g>
<g style="mix-blend-mode:multiply" opacity="0.3">
<path d="M44.8633 294.438C42.4519 305.22 38.8585 313.851 38.2911 314.938C37.6764 316.073 35.9506 317.232 28.3856 317.61C23.4919 317.847 16.1396 317.752 5.07567 317.114C5.07567 317.114 20.2768 317.35 28.5038 316.546C29.8041 316.428 30.9151 316.262 31.7899 316.073C38.1493 314.702 44.1541 288.858 44.9106 282.971C45.1234 281.221 45.1233 277.651 44.6742 273.111C43.6103 262.447 40.1114 246.274 31.5534 234.381C19.3074 217.381 5.28844 209.507 -0.314453 210.382L0.725752 208.348C0.725752 208.348 14.1774 213.266 23.3028 223.15C32.4045 233.01 43.9176 250.128 46.66 269.233C47.8184 277.367 46.66 286.494 44.8633 294.462V294.438Z" fill="#B834C0"/>
</g>
<path d="M65.7868 172.385C61.4605 174.465 15.2425 196.644 9.54503 201.87C3.54024 207.355 -18.4458 302.809 -18.4458 302.809L-26.791 295.739C-24.7579 286.636 -20.9281 273.371 -17.1219 259.019C-11.1171 236.367 -0.71508 205.133 6.77908 200.144C12.4056 196.384 48.198 180.235 65.7868 172.408V172.385Z" fill="#FFE9A9"/>
<g style="mix-blend-mode:multiply" opacity="0.3">
<path d="M107.51 165.102C107.51 165.102 90.4653 161.792 87.9594 157.914C85.4534 154.06 83.7277 142.143 87.9594 140.275C92.4275 138.904 96.612 139.448 96.612 139.448C96.612 139.448 97.6285 158.056 98.7869 160.751C99.3543 162.052 103.137 163.565 107.51 165.102Z" fill="#B834C0"/>
</g>
<path d="M99.4729 199.269C99.4729 199.269 84.6027 196.762 76.4939 184.774C76.4939 184.774 47.5102 197.259 40.016 203.146C32.5218 209.01 24.5312 220.383 24.5312 220.383C24.5312 220.383 31.2689 208.514 33.893 205.392C36.5172 202.271 75.4774 183.285 75.4774 183.285L65.7846 172.408L69.4726 170.753C69.4726 170.753 75.5009 181.015 80.5837 186.406C85.6902 191.797 90.5839 196.904 99.4493 199.269H99.4729Z" fill="#FFE9A9"/>
<g style="mix-blend-mode:multiply" opacity="0.3">
<path d="M148.931 414.482L139.64 464.49L136.118 483.524L129.451 525.162L125.976 541.785C125.645 541.785 125.314 541.785 124.983 541.785C121.011 541.737 117.157 541.666 113.422 541.572C110.396 541.501 107.441 541.383 104.533 541.264L135.692 413.252L138.742 413.536L148.931 414.482Z" fill="#B834C0"/>
</g>
<path d="M274.344 300.207C273.422 305.244 256.661 308.365 246.093 309.807C235.526 311.249 222.453 310.54 222.453 310.54C222.453 310.54 231.412 390.932 233.256 411.739C235.1 432.546 228.126 478.464 223.044 484.872C221.412 486.929 208.717 491.54 176.755 488.419C147.204 485.534 143.374 486.929 138.953 460.589C138.953 460.589 139.142 349.672 135.478 280.062C131.79 210.476 132.948 171.344 137.771 168.72C138.787 168.176 140.182 167.585 141.79 166.97C143.894 166.119 143.799 163.187 143.799 163.187V142.711C143.799 142.711 153.516 141.623 159.568 141.765C161.223 141.788 162.617 141.93 163.468 142.214C167.322 143.491 172.618 165.149 172.618 165.149L179.095 166.994C179.095 166.994 182.499 168.554 187.7 170.99C187.7 170.99 187.795 171.037 188.008 171.131C204.154 178.65 237.063 194.161 242.24 197.779C249.119 202.579 258.694 232.584 264.202 254.337C267.701 268.122 271.224 280.866 273.091 289.615C274.179 294.675 274.699 298.41 274.368 300.255L274.344 300.207Z" fill="#EF9B23"/>
<g style="mix-blend-mode:multiply" opacity="0.3">
<path d="M133.707 190.544C133.707 190.544 139.57 196.644 152.194 195.202C164.818 193.759 174.346 184.514 174.346 184.514C174.346 184.514 167.466 194.35 157.017 196.88C146.568 199.41 133.494 195.32 133.494 195.32L133.683 190.52L133.707 190.544Z" fill="#B834C0"/>
</g>
<g style="mix-blend-mode:multiply" opacity="0.3">
<path d="M205.574 264.102C205.574 264.102 206.165 274.837 207.206 288.338C208.388 303.47 210.137 322.079 212.336 332.861C216.473 353.266 230.161 381.309 230.161 381.309L222.359 310.611L222.241 309.571C221.059 309.453 220.019 309.287 219.215 309.122C213.352 307.797 207.868 282.971 207.158 277.32C206.946 275.617 206.969 272.212 207.371 267.838L205.551 264.126L205.574 264.102Z" fill="#B834C0"/>
</g>
<g style="mix-blend-mode:multiply" opacity="0.3">
<path d="M207.229 288.314C209.451 298.671 212.761 306.97 213.281 308.01C213.849 309.098 215.433 310.209 222.383 310.588C226.875 310.824 233.636 310.729 243.802 310.115C243.802 310.115 229.83 310.351 222.265 309.571C221.083 309.453 220.043 309.287 219.239 309.122C213.376 307.797 207.891 282.971 207.182 277.32C206.969 275.617 206.993 272.212 207.395 267.838C208.388 257.6 211.579 242.065 219.452 230.645C230.705 214.33 243.589 206.764 248.719 207.592L247.75 205.629C247.75 205.629 235.386 210.358 226.993 219.839C218.624 229.321 208.057 245.754 205.527 264.102C204.463 271.905 205.527 280.677 207.158 288.338L207.229 288.314Z" fill="#B834C0"/>
</g>
<path d="M187.986 171.084C191.958 173.07 234.441 194.374 239.689 199.41C245.197 204.683 265.41 296.353 265.41 296.353L273.07 289.544C271.202 280.795 267.68 268.051 264.181 254.266C258.673 232.513 249.098 202.508 242.218 197.708C237.065 194.114 204.133 178.603 187.986 171.061V171.084Z" fill="#FFE9A9"/>
<path d="M157.014 196.904C157.014 196.904 170.678 194.516 178.125 182.977C178.125 182.977 204.745 194.965 211.648 200.616C218.527 206.267 225.88 217.168 225.88 217.168C225.88 217.168 219.686 205.771 217.274 202.768C214.863 199.765 179.047 181.535 179.047 181.535L187.96 171.084L184.555 169.5C184.555 169.5 179.023 179.36 174.342 184.538C169.662 189.716 165.17 194.611 157.014 196.904Z" fill="#FFE9A9"/>
<g style="mix-blend-mode:multiply" opacity="0.3">
<path d="M154.936 159.735C153.588 164.322 141.768 166.946 141.768 166.946C143.872 166.095 143.777 163.163 143.777 163.163V144.177C143.777 144.177 150.018 144.342 152.359 145.69C154.676 147.014 156.259 155.195 154.936 159.759V159.735Z" fill="#B834C0"/>
</g>
<g style="mix-blend-mode:multiply" opacity="0.8">
<path d="M136.873 541.832C135.194 541.832 133.539 541.832 131.861 541.832L129.426 525.162L136.093 483.524L136.873 541.832Z" fill="#B834C0"/>
</g>
<path d="M402.79 182.99C408.017 196.272 403.484 213.022 395.11 217.904C386.736 222.785 334.04 225.585 294.945 226.279C255.85 226.973 227.582 214.41 222.354 206.035C219.58 201.624 220.224 189.73 221.19 178.208C222.057 167.875 223.172 157.84 222.354 153.751C222.181 152.884 221.834 151.819 221.388 150.58C221.388 150.58 221.388 150.53 221.363 150.505C220.967 149.39 220.447 148.176 219.902 146.888L219.852 146.764C217.077 140.321 212.791 131.599 210.487 123.868C208.579 117.45 208.034 111.727 210.834 108.505C212.543 106.523 214.525 104.045 216.557 101.295C216.953 100.923 229.911 89.0043 233.131 82.6857C235.708 77.6061 234.469 67.4715 236.476 59.1706C236.476 59.0715 236.526 58.9476 236.55 58.8733C236.55 58.8237 236.575 58.7742 236.6 58.6998C237.12 56.668 237.863 54.7848 238.879 53.0998C241.852 48.2679 250.945 46.6078 258.451 46.0874C265.24 46.3104 273.96 46.9051 284.564 48.1936C285.729 48.3423 286.918 48.4909 288.132 48.6396C319.72 52.8272 324.353 67.7441 338.747 88.6574C353.141 109.571 371.995 113.833 389.783 113.684C397.686 113.61 403.261 117.475 407.026 121.762C411.734 127.139 413.592 133.21 413.592 133.21C413.592 133.21 421.768 134.548 427.936 144.732C429.844 147.854 431.554 151.819 432.792 156.849C438.02 178.208 402.765 182.941 402.765 182.941L402.79 182.99Z" fill="#571B39"/>
<g style="mix-blend-mode:multiply" opacity="0.8">
<path d="M402.789 182.99C408.016 196.272 403.483 213.022 395.109 217.904C386.735 222.785 334.039 225.585 294.944 226.279C255.849 226.973 227.581 214.41 222.353 206.035C219.579 201.624 220.223 189.73 221.189 178.208C226.392 206.679 253.694 195.826 256.295 186.905C258.921 178.01 254.189 167.528 249.754 156.873C245.295 146.219 246.088 126.767 246.088 126.767L352.892 117.004L407.05 121.762C411.758 127.139 413.616 133.21 413.616 133.21C413.616 133.21 421.791 134.548 427.96 144.732C429.868 147.854 431.578 151.819 432.816 156.849C438.044 178.208 402.789 182.941 402.789 182.941V182.99Z" fill="#B834C0"/>
</g>
<g style="mix-blend-mode:multiply" opacity="0.8">
<path d="M284.564 48.243L272.771 67.6201C272.771 67.6201 256.222 68.7351 252.431 73.5174C248.641 78.275 244.85 89.5989 245.544 96.0662C246.237 102.558 239.424 107.787 227.904 110.562C216.384 113.362 212.197 124.116 215.343 131.128C218.39 137.918 221.19 149.811 221.363 150.555V150.48L219.902 146.912L219.852 146.788L210.487 123.893C208.579 117.475 208.034 111.751 210.834 108.53C212.543 106.548 214.525 104.07 216.557 101.319C216.953 100.948 229.911 89.029 233.131 82.7104C235.708 77.6307 234.469 67.4962 236.476 59.1953C236.476 59.0962 236.526 58.9723 236.55 58.8979C236.55 58.8484 236.575 58.7988 236.6 58.7245C237.12 56.6926 237.863 54.8094 238.879 53.1245C241.852 48.2926 250.945 46.6324 258.451 46.1121C265.24 46.3351 273.96 46.9298 284.564 48.2183V48.243Z" fill="#B834C0"/>
</g>
<path d="M340.259 206.035C339.986 207.447 339.441 209.305 338.426 211.635C335.799 217.582 314.865 239.387 297.943 239.907C281.022 240.428 277.876 215.649 278.396 211.808C278.916 207.967 289.916 204.647 289.916 204.647L284.689 182.123V182.098L281.914 170.081C281.914 170.081 279.808 170.948 276.488 170.081C273.168 169.213 259.195 157.518 253.795 152.983C248.369 148.449 246.114 134.647 246.114 126.792C246.114 118.937 242.968 84.8909 250.128 75.8219C257.288 66.7528 276.488 67.6201 276.488 67.6201C276.488 67.6201 295.342 68.7104 303.443 71.9812C311.545 75.252 318.11 102.36 318.11 102.36C318.11 102.36 320.34 98.8166 327.921 98.4202C335.502 98.0237 336.691 112.172 337.732 115.716C338.773 119.259 333.793 129.319 329.085 130.385C324.378 131.426 321.158 126.618 321.158 126.618C321.158 126.618 321.157 132.739 320.29 135.688C319.844 137.149 318.63 139.726 317.54 141.932C316.425 144.137 315.41 145.996 315.41 145.996C315.41 145.996 316.797 168.321 324.651 184.403C332.504 200.459 340.532 202.714 340.532 202.714C340.532 202.714 340.73 203.829 340.284 206.01L340.259 206.035Z" fill="#F8C89E"/>
<path d="M288.131 110.562C288.131 110.562 291.699 107.167 294.077 106.647C296.431 106.127 305.672 107.167 305.672 107.167C305.672 107.167 298.09 107.811 294.597 108.53C291.104 109.249 288.131 110.562 288.131 110.562Z" fill="#332738"/>
<path d="M270.592 115.542C270.592 115.542 265.785 113.362 262.465 113.808C259.146 114.254 252.432 120.35 252.432 120.35C252.432 120.35 256.965 117.376 262.193 116.335C267.42 115.295 270.567 115.542 270.567 115.542H270.592Z" fill="#332738"/>
<path d="M262.49 90.2433C262.49 90.2433 262.143 93.7372 260.83 96.6115C259.517 99.4858 247.402 105.433 247.402 105.433C247.402 105.433 256.99 95.8434 258.056 94.5301C259.121 93.2168 262.515 90.2433 262.515 90.2433H262.49Z" fill="#332738"/>
<path d="M283.251 87.4433C283.251 87.4433 286.398 89.7229 288.132 90.2433C289.866 90.7636 302.006 90.2433 302.006 90.2433C302.006 90.2433 296.853 88.5088 291.7 87.4433C286.546 86.4026 283.227 87.4433 283.227 87.4433H283.251Z" fill="#332738"/>
<g style="mix-blend-mode:multiply" opacity="0.3">
<path d="M270.493 133.705C270.493 133.705 274.036 128.725 276.29 128.279C278.545 127.833 282.93 127.288 286.076 128.279L289.248 129.27C289.248 129.27 286.076 131.525 279.065 133.259C272.054 134.994 269.675 134.771 270.468 133.705H270.493Z" fill="#B834C0"/>
</g>
<path d="M302.229 133.259C302.229 133.259 299.008 144.385 292.963 148.052C286.918 151.72 272.251 152.636 268.064 142.551C268.064 142.551 268.585 142.551 269.501 142.527C272.35 142.427 279.015 142.056 284.961 140.47C289.841 139.157 295.342 136.704 298.785 135.019C300.891 133.978 302.229 133.259 302.229 133.259Z" fill="#711F16"/>
<path d="M298.784 135.019C298.784 135.613 298.759 136.307 298.635 137.05C298.288 139.181 289.469 142.675 285.158 144.063C280.847 145.45 271.928 146.02 271.086 145.302C270.59 144.905 269.946 143.567 269.5 142.527C272.349 142.427 279.014 142.056 284.96 140.47C289.84 139.157 295.34 136.704 298.784 135.019Z" fill="white"/>
<g style="mix-blend-mode:multiply" opacity="0.3">
<path d="M340.258 206.035C334.758 209.429 309.166 206.307 299.677 201.252C290.486 196.346 285.01 182.966 284.663 182.148C284.663 182.123 284.663 182.123 284.663 182.123L281.889 170.105C281.889 170.105 288.082 169.337 295.416 165.744C302.526 162.275 316.598 143.196 317.49 142.006H317.515V141.957C317.515 141.957 317.515 141.957 317.515 141.982C316.4 144.187 315.384 146.02 315.384 146.02C315.384 146.02 315.409 146.665 315.533 147.829C316.053 153.454 318.11 171.097 324.625 184.428C332.479 200.484 340.506 202.739 340.506 202.739C340.506 202.739 340.704 203.854 340.258 206.035Z" fill="#B834C0"/>
</g>
<g style="mix-blend-mode:multiply" opacity="0.3">
<path d="M317.49 141.982C316.375 144.187 315.359 146.02 315.359 146.02C315.359 146.02 315.384 146.665 315.508 147.829C313.972 152.364 311.841 158.459 310.379 162.176C307.852 168.619 299.999 171.691 292.963 171.865C285.926 172.038 281.863 170.105 281.863 170.105C281.863 170.105 288.057 169.337 295.39 165.744C302.501 162.275 316.573 143.196 317.465 142.006H317.49V141.957C317.49 141.957 317.49 141.957 317.49 141.982Z" fill="#B834C0"/>
</g>
<path d="M274.556 129.245V112.767C274.556 112.767 276.588 124.81 276.959 125.603C277.331 126.396 281.84 127.734 281.84 127.734C281.84 127.734 275.943 127.932 274.531 129.245H274.556Z" fill="#FFE9A9"/>
<path d="M414.139 494.559C413.47 499.986 410.968 513.069 407.4 530.34C399.72 531.356 389.934 532.62 378.463 534.007C357.9 536.485 331.936 539.384 302.998 542.061C298.539 542.482 294.03 542.878 289.446 543.275C279.859 544.117 270.023 544.935 259.989 545.678C253.226 546.174 246.363 546.669 239.451 547.115C237.692 547.239 235.933 547.338 234.174 547.462C233.48 547.512 232.811 547.537 232.117 547.586C230.507 547.685 228.872 547.784 227.261 547.883C225.329 548.007 223.372 548.106 221.439 548.206C224.214 538.765 227.385 528.011 230.73 516.637C235.834 499.391 241.383 480.659 246.71 462.768C247.825 459.027 248.915 455.31 250.005 451.667C261.699 412.343 271.46 379.611 271.46 379.611L280.8 378.991L330.053 375.77L375.366 372.796C375.366 372.796 375.366 372.796 375.366 372.846C375.366 372.895 375.391 372.995 375.415 373.143C375.415 373.218 375.44 373.292 375.465 373.391C375.49 373.515 375.515 373.639 375.564 373.788C375.589 373.936 375.638 374.085 375.663 374.258C375.787 374.779 375.936 375.423 376.134 376.166C376.184 376.414 376.258 376.687 376.332 376.959C376.332 377.009 376.357 377.083 376.382 377.133C376.431 377.356 376.506 377.579 376.555 377.802C376.976 379.363 377.497 381.246 378.141 383.352C378.24 383.699 378.364 384.071 378.463 384.418C378.587 384.789 378.686 385.161 378.81 385.508C378.933 385.88 379.057 386.251 379.181 386.648C379.578 387.812 379.974 389.051 380.42 390.315C380.569 390.786 380.742 391.281 380.94 391.752C381.139 392.297 381.337 392.818 381.535 393.363C381.882 394.304 382.253 395.246 382.65 396.212C383.046 397.228 383.467 398.244 383.913 399.285C384.111 399.78 384.334 400.251 384.557 400.747C384.681 401.044 384.83 401.342 384.954 401.639C385.771 403.473 386.663 405.306 387.605 407.14C389.859 411.501 392.461 415.788 395.409 419.678C399.224 424.708 402.544 430.581 405.319 436.998C412.949 454.591 416.368 476.124 414.064 494.559H414.139Z" fill="#223987"/>
<g style="mix-blend-mode:multiply" opacity="0.3">
<path d="M306.813 484.97C306.813 484.97 304.36 495.452 303.518 506.627C303.121 511.855 303.022 527.193 303.022 542.061C298.563 542.482 294.054 542.878 289.47 543.275C291.205 524.542 291.452 508.956 289.371 503.133C287.117 496.79 279.957 489.876 272.574 484.053C263.135 476.62 253.274 470.97 252.754 470.673L273.837 476.248L306.838 484.97H306.813Z" fill="#B834C0"/>
</g>
<g style="mix-blend-mode:multiply" opacity="0.3">
<path d="M387.653 407.14C387.653 407.14 357.576 416.035 345.288 406.074C333 396.113 330.076 375.795 330.076 375.795L375.389 372.821C375.389 372.821 379.007 390.439 387.653 407.14Z" fill="#B834C0"/>
</g>
<path d="M454.619 325.791C454.47 327.401 448.896 341.625 440.101 358.92C433.114 372.672 424.121 388.357 414.186 401.218C412.006 404.018 410.049 406.223 408.24 407.883C391.517 423.494 390.377 393.883 390.377 393.883C390.377 393.883 390.377 393.883 390.377 393.858C390.699 392.669 401.204 354.658 402.765 344.871C404.35 334.909 412.204 324.453 412.204 324.453L384.184 277.869L388.866 273.929L412.204 254.304C412.204 254.304 433.932 287.285 440.224 296.453C446.492 305.621 454.891 322.892 454.619 325.791Z" fill="#F7C296"/>
<path d="M414.185 401.242C413.912 401.713 409.478 409.196 409.601 409.568C409.651 409.717 409.354 413.78 408.982 418.612C408.412 425.674 407.694 434.347 407.62 434.867C407.496 435.734 389.608 449.313 389.038 449.734C389.038 449.734 387.131 451.543 385.669 452.782C385.05 453.327 384.505 453.748 384.232 453.897C383.588 454.219 380.664 453.005 379.203 452.336L378.36 451.94C378.36 451.94 375.189 453.6 373.777 453.426C372.811 453.278 371.176 451.791 370.284 450.899L369.912 450.527L369.64 450.255C369.64 450.255 366.419 447.157 365.998 446.513C365.577 445.869 366.716 442.995 366.716 442.995C366.716 442.995 365.849 440.071 366.047 437.023C366.047 436.701 366.097 436.403 366.146 436.106C366.146 436.081 366.146 436.007 366.146 435.982C366.295 435.09 366.518 434.223 366.939 433.43C368.872 429.663 378.435 411.848 380.367 407.016C380.986 405.455 382.176 403.745 383.489 402.06C384.034 401.391 384.579 400.747 385.149 400.102C385.421 399.78 385.694 399.458 385.991 399.161C388.072 396.832 390.005 394.849 390.401 393.908C390.401 393.908 390.401 393.908 390.401 393.883C391.219 391.95 392.457 388.754 392.457 388.754L393.424 389.299L410.865 399.309L414.16 401.193L414.185 401.242Z" fill="#F7C296"/>
<g style="mix-blend-mode:multiply" opacity="0.3">
<path d="M385.668 452.832L398.452 437.395L389.037 449.784C389.037 449.784 387.13 451.593 385.668 452.832Z" fill="#B834C0"/>
</g>
<g style="mix-blend-mode:multiply" opacity="0.3">
<path d="M379.204 452.386L390.377 435.734L378.361 451.989L379.204 452.386Z" fill="#B834C0"/>
</g>
<g style="mix-blend-mode:multiply" opacity="0.3">
<path d="M370.283 450.949C370.283 450.949 375.288 444.605 376.874 442.102C378.459 439.6 383.092 429.564 383.092 429.564C383.092 429.564 376.155 441.111 374.124 444.233C372.092 447.38 369.664 450.255 369.664 450.255L370.308 450.924L370.283 450.949Z" fill="#B834C0"/>
</g>
<g style="mix-blend-mode:multiply" opacity="0.3">
<path d="M365.997 446.513C366.22 445.918 369.714 437.196 370.036 436.081C370.358 434.917 370.482 433.157 370.16 432.885C369.862 432.612 366.369 436.131 366.022 437.048C365.973 437.196 366.022 436.825 366.121 436.131C366.121 436.081 366.121 436.032 366.121 436.007C366.27 435.115 366.493 434.248 366.914 433.455C368.847 429.713 378.41 411.872 380.342 407.04C381.333 404.538 383.761 401.663 385.966 399.161C385.966 399.161 375.338 425.971 373.38 431.076C371.497 436.032 366.295 445.894 365.973 446.488L365.997 446.513Z" fill="#B834C0"/>
</g>
<g style="mix-blend-mode:multiply" opacity="0.3">
<path d="M443.073 326.732C443.073 326.732 424.566 324.007 416.762 326.732C408.958 329.458 401.847 354.088 400.411 360.779C399.271 366.106 395.208 382.287 393.474 389.324C393.028 391.133 392.73 392.322 392.681 392.595C392.433 393.858 397.115 398.195 397.388 398.467L390.426 393.933C390.426 393.933 390.426 393.933 390.426 393.908C390.748 392.718 401.253 354.708 402.814 344.92C404.399 334.959 412.253 324.502 412.253 324.502L384.232 277.918L388.915 273.978L425.706 279.578C425.706 279.578 422.881 286.541 415.721 291.596C408.561 296.651 405.588 297.023 405.588 297.023C405.588 297.023 413.814 310.626 415.647 314.467C417.456 318.308 417.307 323.016 417.307 323.016C417.307 323.016 425.012 322.718 430.388 323.635C435.764 324.552 443.098 326.757 443.098 326.757L443.073 326.732Z" fill="#B834C0"/>
</g>
<path d="M440.099 358.945C433.112 372.697 424.119 388.382 414.184 401.242C413.912 401.713 409.477 409.196 409.601 409.568C409.65 409.717 409.353 413.78 408.981 418.612C408.981 418.612 408.734 410.708 408.263 407.908C408.189 407.462 408.114 407.14 408.04 407.016C407.421 406.049 400.459 400.648 400.459 400.648C400.459 400.648 407.173 403.175 408.139 403.274C408.313 403.274 409.353 401.787 410.939 399.334C417.851 388.605 435.069 359.564 435.515 358.945C436.036 358.177 440.148 358.945 440.148 358.945H440.099Z" fill="#FFE9A9"/>
<path d="M430.364 264.339C430.364 264.339 429.324 280.049 418.497 287.73C407.67 295.412 386.389 298.906 386.389 298.906L383.44 294.247L375.389 281.461V372.846L271.458 379.66C271.458 379.66 269.055 374.803 265.562 367.543C265.537 367.493 265.512 367.469 265.487 367.444C265.487 367.419 265.463 367.394 265.438 367.345C257.435 350.743 243.834 321.826 240.019 309.511C238.656 305.051 238.408 300.665 238.829 296.453C240.142 283.791 247.6 272.392 249.185 263.967C251.266 252.718 253.1 224.693 257.287 217.111C261.424 209.628 288.949 204.87 289.816 204.721C286.224 206.357 277.974 218.3 285.555 228.633C293.136 238.966 301.882 235.967 315.656 229.327C329.431 222.686 340.431 202.789 340.431 202.789C340.431 202.789 363.819 201.649 374.299 202.442C384.754 203.21 398.107 209.256 402.046 218.672C405.961 228.113 430.315 264.413 430.315 264.413L430.364 264.339Z" fill="#34C9B6"/>
<g style="mix-blend-mode:multiply" opacity="0.3">
<path d="M383.441 294.247L375.389 281.461V372.846L271.459 379.66C271.459 379.66 245.544 327.302 240.044 309.486C238.681 305.026 238.434 300.64 238.855 296.428C240.168 304.803 248.071 308.198 278.173 310.106C310.974 312.212 340.655 308 351.828 297.196C363.002 286.368 367.882 243.773 367.882 243.773L383.441 294.272V294.247Z" fill="#B834C0"/>
</g>
<g style="mix-blend-mode:multiply" opacity="0.3">
<path d="M375.388 281.461V372.846L271.457 379.66C271.457 379.66 269.054 374.803 265.561 367.543C266.304 368.807 270.813 375.596 284.018 375.993C298.586 376.439 332.701 373.366 352.074 362.364C371.448 351.362 370.656 321.975 371.721 302.399C372.762 282.849 367.881 243.748 367.881 243.748L375.388 281.461Z" fill="#B834C0"/>
</g>
<path d="M427.963 144.781C425.832 148.498 423.28 151.323 420.407 151.943C410.323 154.073 366.67 154.197 350.244 143.914C333.843 133.606 317.442 109.695 312.735 101.666C308.028 93.638 295.293 86.8238 284.145 82.4627C272.971 78.1016 260.039 54.1901 249.237 52.0839C239.921 50.275 237.196 56.8662 236.602 58.7246C237.122 56.6927 237.865 54.8096 238.881 53.1246C241.854 48.2927 250.946 46.6325 258.453 46.1122C266.009 46.36 275.895 47.0538 288.133 48.6644C288.133 48.6644 288.133 48.6644 288.158 48.6644C317.739 52.5795 323.661 65.96 336.147 84.8167C336.147 84.8415 336.197 84.891 336.221 84.9158C337.039 86.13 337.881 87.3937 338.748 88.6822C353.143 109.596 371.996 113.857 389.785 113.709C407.598 113.56 413.593 133.235 413.593 133.235C413.593 133.235 421.769 134.573 427.938 144.757L427.963 144.781Z" fill="#5C1B34"/>
<path d="M336.145 84.8662C331.141 77.7795 318.58 67.9919 318.58 67.9919C318.58 67.9919 317.093 68.5122 313.08 69.5529C309.19 70.5689 297.868 72.1547 297.15 72.2538C297.645 72.1051 302.823 70.6184 305.474 69.1317C308.273 67.5458 315.508 63.4573 315.508 63.4573C315.508 63.4573 310.528 58.3033 305.3 54.8095C300.246 51.4396 288.85 48.8626 288.156 48.7139C317.737 52.629 323.659 66.0096 336.145 84.8662Z" fill="#FFE9A9"/>
</g>
</svg>
