<svg width="402" height="357" viewBox="0 0 402 357" fill="none" xmlns="http://www.w3.org/2000/svg">
<path d="M0.0323697 181.416C0.0323697 252.482 36.9015 314.965 92.5128 350.725C92.5452 350.79 92.6423 350.822 92.6747 350.854C93.8723 351.632 95.0377 352.377 96.2677 353.089C96.2677 353.089 96.3001 353.089 96.3324 353.089C111.19 360.993 129.77 355.745 138.251 341.072C146.57 326.69 142.2 308.422 128.605 299.287C127.99 298.899 127.375 298.51 126.76 298.154C88.3047 273.569 62.765 230.488 62.765 181.416C62.765 128.91 91.9949 83.2379 135.047 59.7866C135.079 59.7866 135.079 59.7542 135.144 59.7218C135.824 59.3655 136.471 59.0092 137.151 58.6529C137.151 58.6529 137.151 58.6529 137.183 58.6529C152.203 49.9721 157.349 30.7641 148.674 15.7345C140.55 1.64436 123.135 -3.76498 108.601 2.81044C108.536 2.81044 108.471 2.87522 108.439 2.90761C107.371 3.45826 106.302 4.00892 105.266 4.55957C45.1882 37.1775 3.65778 99.4983 0.258958 171.796C0.161849 173.415 0.129479 175.067 0.0647395 176.719C0.0323697 178.274 0 179.829 0 181.416H0.0323697Z" fill="white"/>
<mask id="mask0_3722_6249" style="mask-type:luminance" maskUnits="userSpaceOnUse" x="0" y="0" width="153" height="357">
<path d="M0.0323697 181.416C0.0323697 252.482 36.9015 314.965 92.5128 350.725C92.5452 350.79 92.6423 350.822 92.6747 350.854C93.8723 351.632 95.0377 352.377 96.2677 353.089C96.2677 353.089 96.3001 353.089 96.3324 353.089C111.19 360.993 129.77 355.745 138.251 341.072C146.57 326.69 142.2 308.422 128.605 299.287C127.99 298.899 127.375 298.51 126.76 298.154C88.3047 273.569 62.765 230.488 62.765 181.416C62.765 128.91 91.9949 83.2379 135.047 59.7866C135.079 59.7866 135.079 59.7542 135.144 59.7218C135.824 59.3655 136.471 59.0092 137.151 58.6529C137.151 58.6529 137.151 58.6529 137.183 58.6529C152.203 49.9721 157.349 30.7641 148.674 15.7345C140.55 1.64436 123.135 -3.76498 108.601 2.81044C108.536 2.81044 108.471 2.87522 108.439 2.90761C107.371 3.45826 106.302 4.00892 105.266 4.55957C45.1882 37.1775 3.65778 99.4983 0.258958 171.796C0.161849 173.415 0.129479 175.067 0.0647395 176.719C0.0323697 178.274 0 179.829 0 181.416H0.0323697Z" fill="white"/>
</mask>
<g mask="url(#mask0_3722_6249)">
<path d="M411.004 -32.8201H-11.1953V389.659H411.004V-32.8201Z" fill="white"/>
</g>
<path d="M401.999 181.416C401.999 252.482 365.13 314.965 309.518 350.725C309.486 350.79 309.389 350.822 309.356 350.854C308.159 351.632 306.993 352.377 305.763 353.089C305.763 353.089 305.731 353.089 305.699 353.089C290.841 360.993 272.261 355.745 263.78 341.072C255.461 326.691 259.831 308.422 273.426 299.288C274.041 298.899 274.656 298.51 275.271 298.154C293.366 286.59 308.644 270.913 319.682 252.417C320.427 251.316 321.107 250.15 321.689 248.952C326.253 239.785 326.286 228.61 320.783 219.087C312.075 204.025 292.815 198.842 277.731 207.556C273.523 209.985 270.059 213.256 267.47 217.046C266.564 218.342 265.787 219.702 265.107 221.127V221.16C251.803 242.635 228.044 256.92 200.95 256.92C159.29 256.92 125.496 223.103 125.496 181.383C125.496 139.663 159.29 105.847 200.95 105.847C228.302 105.847 252.256 120.391 265.495 142.222C265.495 142.255 265.528 142.287 265.528 142.32C266.013 143.259 266.531 144.133 267.081 145.008C272.681 153.689 282.392 159.455 293.495 159.455C310.878 159.455 324.926 145.332 324.926 127.905C324.926 122.788 323.696 117.929 321.527 113.653C321.463 113.556 321.43 113.491 321.398 113.427C320.977 112.649 320.556 111.872 320.071 111.127C307.349 89.5542 288.931 71.739 266.887 59.7543C266.855 59.7543 266.855 59.7219 266.79 59.6895C266.11 59.3332 265.463 58.9769 264.783 58.6206C264.783 58.6206 264.783 58.6206 264.751 58.6206C249.731 49.9397 244.584 30.7317 253.26 15.7022C261.384 1.61201 278.799 -3.79733 293.333 2.77809C293.398 2.77809 293.463 2.84288 293.495 2.87527C294.563 3.42592 295.632 3.97657 296.667 4.52722C356.681 37.1776 398.244 99.4983 401.643 171.796C401.74 173.415 401.772 175.067 401.837 176.719C401.869 178.274 401.902 179.829 401.902 181.416H401.999Z" fill="white"/>
<mask id="mask1_3722_6249" style="mask-type:luminance" maskUnits="userSpaceOnUse" x="125" y="0" width="277" height="357">
<path d="M401.997 181.416C401.997 252.482 365.128 314.965 309.516 350.725C309.484 350.79 309.387 350.822 309.354 350.854C308.157 351.632 306.991 352.377 305.761 353.089C305.761 353.089 305.729 353.089 305.697 353.089C290.839 360.993 272.259 355.745 263.778 341.072C255.459 326.691 259.829 308.422 273.424 299.288C274.039 298.899 274.654 298.51 275.269 298.154C293.364 286.59 308.642 270.913 319.68 252.417C320.425 251.316 321.105 250.15 321.687 248.952C326.251 239.785 326.284 228.61 320.781 219.087C312.074 204.025 292.814 198.842 277.729 207.556C273.521 209.985 270.058 213.256 267.468 217.046C266.562 218.342 265.785 219.702 265.105 221.127V221.16C251.801 242.635 228.042 256.92 200.948 256.92C159.288 256.92 125.494 223.103 125.494 181.383C125.494 139.663 159.288 105.847 200.948 105.847C228.301 105.847 252.254 120.391 265.493 142.222C265.493 142.255 265.526 142.287 265.526 142.32C266.011 143.259 266.529 144.133 267.08 145.008C272.68 153.689 282.39 159.455 293.493 159.455C310.876 159.455 324.924 145.332 324.924 127.905C324.924 122.788 323.694 117.929 321.525 113.653C321.461 113.556 321.428 113.491 321.396 113.427C320.975 112.649 320.554 111.872 320.069 111.127C307.348 89.5542 288.929 71.739 266.885 59.7543C266.853 59.7543 266.853 59.7219 266.788 59.6895C266.108 59.3332 265.461 58.9769 264.781 58.6206C264.781 58.6206 264.781 58.6206 264.749 58.6206C249.729 49.9397 244.583 30.7317 253.258 15.7022C261.382 1.61201 278.797 -3.79733 293.331 2.77809C293.396 2.77809 293.461 2.84288 293.493 2.87527C294.561 3.42592 295.63 3.97657 296.666 4.52722C356.679 37.1776 398.242 99.4983 401.641 171.796C401.738 173.415 401.77 175.067 401.835 176.719C401.867 178.274 401.9 179.829 401.9 181.416H401.997Z" fill="white"/>
</mask>
<g mask="url(#mask1_3722_6249)">
<path d="M411.002 -32.8201H-11.1973V389.659H411.002V-32.8201Z" fill="white"/>
</g>
</svg>
