<svg width="276" height="67" viewBox="0 0 276 67" fill="none" xmlns="http://www.w3.org/2000/svg">
<path d="M1.78052 33.9752C1.78052 45.2454 7.62753 55.1544 16.4468 60.8255C16.4519 60.8358 16.4673 60.8409 16.4725 60.846C16.6624 60.9693 16.8472 61.0875 17.0423 61.2005C17.0423 61.2005 17.0474 61.2005 17.0525 61.2005C19.4088 62.4539 22.3554 61.6217 23.7004 59.2947C25.0197 57.0139 24.3266 54.1168 22.1706 52.6682C22.0731 52.6065 21.9755 52.5449 21.878 52.4884C15.7794 48.5895 11.7292 41.7575 11.7292 33.9752C11.7292 25.6483 16.3647 18.4053 23.1921 14.6863C23.1973 14.6863 23.1973 14.6811 23.2075 14.676C23.3153 14.6195 23.418 14.563 23.5258 14.5065C23.5258 14.5065 23.5258 14.5065 23.531 14.5065C25.9129 13.1298 26.7291 10.0836 25.3533 7.70014C24.0648 5.46561 21.303 4.60775 18.9981 5.65053C18.9879 5.65053 18.9776 5.66081 18.9725 5.66594C18.803 5.75327 18.6336 5.8406 18.4694 5.92792C8.94169 11.1007 2.35547 20.984 1.81646 32.4495C1.80106 32.7063 1.79592 32.9683 1.78566 33.2303C1.78052 33.4769 1.77539 33.7234 1.77539 33.9752H1.78052Z" fill="white"/>
<mask id="mask0_3722_6165" style="mask-type:luminance" maskUnits="userSpaceOnUse" x="1" y="5" width="26" height="57">
<path d="M1.78052 33.9752C1.78052 45.2454 7.62753 55.1544 16.4468 60.8255C16.4519 60.8358 16.4673 60.8409 16.4725 60.846C16.6624 60.9693 16.8472 61.0875 17.0423 61.2005C17.0423 61.2005 17.0474 61.2005 17.0525 61.2005C19.4088 62.4539 22.3554 61.6217 23.7004 59.2947C25.0197 57.0139 24.3266 54.1168 22.1706 52.6682C22.0731 52.6065 21.9755 52.5449 21.878 52.4884C15.7794 48.5895 11.7292 41.7575 11.7292 33.9752C11.7292 25.6483 16.3647 18.4053 23.1921 14.6863C23.1973 14.6863 23.1973 14.6811 23.2075 14.676C23.3153 14.6195 23.418 14.563 23.5258 14.5065C23.5258 14.5065 23.5258 14.5065 23.531 14.5065C25.9129 13.1298 26.7291 10.0836 25.3533 7.70014C24.0648 5.46561 21.303 4.60775 18.9981 5.65053C18.9879 5.65053 18.9776 5.66081 18.9725 5.66594C18.803 5.75327 18.6336 5.8406 18.4694 5.92792C8.94169 11.1007 2.35547 20.984 1.81646 32.4495C1.80106 32.7063 1.79592 32.9683 1.78566 33.2303C1.78052 33.4769 1.77539 33.7234 1.77539 33.9752H1.78052Z" fill="white"/>
</mask>
<g mask="url(#mask0_3722_6165)">
<path d="M66.9556 0H0V67H66.9556V0Z" fill="white"/>
</g>
<path d="M65.5277 33.9752C65.5277 45.2454 59.6807 55.1544 50.8614 60.8255C50.8563 60.8358 50.8409 60.8409 50.8357 60.8461C50.6458 60.9693 50.461 61.0875 50.2659 61.2005C50.2659 61.2005 50.2608 61.2005 50.2557 61.2005C47.8994 62.4539 44.9528 61.6217 43.6078 59.2947C42.2885 57.014 42.9816 54.1168 45.1376 52.6682C45.2351 52.6065 45.3327 52.5449 45.4302 52.4884C48.2998 50.6545 50.7228 48.1683 52.4733 45.2351C52.5914 45.0605 52.6992 44.8756 52.7916 44.6855C53.5154 43.2318 53.5205 41.4596 52.6478 39.9493C51.2669 37.5607 48.2125 36.7388 45.8204 38.1206C45.153 38.5059 44.6037 39.0247 44.193 39.6257C44.0493 39.8312 43.9261 40.0469 43.8183 40.2729V40.2781C41.7085 43.6838 37.9405 45.9492 33.6438 45.9492C27.0371 45.9492 21.6777 40.5863 21.6777 33.97C21.6777 27.3538 27.0371 21.9909 33.6438 21.9909C37.9816 21.9909 41.7803 24.2973 43.8799 27.7596C43.8799 27.7647 43.885 27.7698 43.885 27.775C43.962 27.9239 44.0442 28.0626 44.1315 28.2013C45.0195 29.578 46.5596 30.4924 48.3203 30.4924C51.077 30.4924 53.3049 28.2527 53.3049 25.4891C53.3049 24.6775 53.1099 23.9069 52.7659 23.2289C52.7556 23.2135 52.7505 23.2032 52.7454 23.1929C52.6786 23.0696 52.6119 22.9463 52.5349 22.8282C50.5175 19.407 47.5965 16.5818 44.1007 14.6811C44.0955 14.6811 44.0955 14.676 44.0852 14.6709C43.9774 14.6144 43.8748 14.5578 43.767 14.5013C43.767 14.5013 43.767 14.5013 43.7618 14.5013C41.3799 13.1247 40.5637 10.0785 41.9395 7.69501C43.228 5.46048 45.9898 4.60262 48.2947 5.64541C48.3049 5.64541 48.3152 5.65568 48.3203 5.66082C48.4897 5.74814 48.6592 5.83547 48.8234 5.9228C58.3408 11.1007 64.9322 20.9841 65.4712 32.4495C65.4866 32.7064 65.4917 32.9683 65.502 33.2303C65.5071 33.4769 65.5123 33.7235 65.5123 33.9752H65.5277Z" fill="white"/>
<mask id="mask1_3722_6165" style="mask-type:luminance" maskUnits="userSpaceOnUse" x="21" y="5" width="45" height="57">
<path d="M65.5277 33.9752C65.5277 45.2454 59.6807 55.1544 50.8614 60.8255C50.8563 60.8358 50.8409 60.8409 50.8357 60.8461C50.6458 60.9693 50.461 61.0875 50.2659 61.2005C50.2659 61.2005 50.2608 61.2005 50.2557 61.2005C47.8994 62.4539 44.9528 61.6217 43.6078 59.2947C42.2885 57.014 42.9816 54.1168 45.1376 52.6682C45.2351 52.6065 45.3327 52.5449 45.4302 52.4884C48.2998 50.6545 50.7228 48.1683 52.4733 45.2351C52.5914 45.0605 52.6992 44.8756 52.7916 44.6855C53.5154 43.2318 53.5205 41.4596 52.6478 39.9493C51.2669 37.5607 48.2125 36.7388 45.8204 38.1206C45.153 38.5059 44.6037 39.0247 44.193 39.6257C44.0493 39.8312 43.9261 40.0469 43.8183 40.2729V40.2781C41.7085 43.6838 37.9405 45.9492 33.6438 45.9492C27.0371 45.9492 21.6777 40.5863 21.6777 33.97C21.6777 27.3538 27.0371 21.9909 33.6438 21.9909C37.9816 21.9909 41.7803 24.2973 43.8799 27.7596C43.8799 27.7647 43.885 27.7698 43.885 27.775C43.962 27.9239 44.0442 28.0626 44.1315 28.2013C45.0195 29.578 46.5596 30.4924 48.3203 30.4924C51.077 30.4924 53.3049 28.2527 53.3049 25.4891C53.3049 24.6775 53.1099 23.9069 52.7659 23.2289C52.7556 23.2135 52.7505 23.2032 52.7454 23.1929C52.6786 23.0696 52.6119 22.9463 52.5349 22.8282C50.5175 19.407 47.5965 16.5818 44.1007 14.6811C44.0955 14.6811 44.0955 14.676 44.0852 14.6709C43.9774 14.6144 43.8748 14.5578 43.767 14.5013C43.767 14.5013 43.767 14.5013 43.7618 14.5013C41.3799 13.1247 40.5637 10.0785 41.9395 7.69501C43.228 5.46048 45.9898 4.60262 48.2947 5.64541C48.3049 5.64541 48.3152 5.65568 48.3203 5.66082C48.4897 5.74814 48.6592 5.83547 48.8234 5.9228C58.3408 11.1007 64.9322 20.9841 65.4712 32.4495C65.4866 32.7064 65.4917 32.9683 65.502 33.2303C65.5071 33.4769 65.5123 33.7235 65.5123 33.9752H65.5277Z" fill="white"/>
</mask>
<g mask="url(#mask1_3722_6165)">
<path d="M66.9556 0H0V67H66.9556V0Z" fill="white"/>
</g>
<path d="M100.503 50.0433C98.3059 50.0433 96.2474 49.6272 94.3326 48.8002C92.4179 47.9731 90.7495 46.8173 89.3224 45.3379C87.8953 43.8585 86.7813 42.1274 85.9805 40.1394C85.1797 38.1566 84.7793 36.0094 84.7793 33.6978C84.7793 31.3862 85.1797 29.2904 85.9805 27.3178C86.7813 25.3504 87.8953 23.6244 89.3224 22.1399C90.7495 20.6605 92.4127 19.4995 94.3121 18.6571C96.2115 17.8147 98.2751 17.3934 100.503 17.3934C102.592 17.3934 104.394 17.6657 105.898 18.2102C107.408 18.7547 108.917 19.6485 110.441 20.9019C110.657 21.0663 110.826 21.2358 110.95 21.4105C111.073 21.5851 111.155 21.7649 111.196 21.9395C111.237 22.1142 111.258 22.3248 111.258 22.5714C111.258 23.0902 111.073 23.5166 110.708 23.8556C110.344 24.1946 109.902 24.3847 109.384 24.4258C108.865 24.4669 108.368 24.2974 107.875 23.9172C106.869 23.0491 105.832 22.3813 104.759 21.919C103.686 21.4567 102.269 21.2255 100.503 21.2255C98.9014 21.2255 97.3922 21.5491 95.9805 22.2015C94.5688 22.8539 93.3265 23.7477 92.2536 24.8932C91.1807 26.0336 90.344 27.3589 89.7485 28.8692C89.153 30.3794 88.8501 31.9872 88.8501 33.6978C88.8501 35.4084 89.1479 37.0625 89.7485 38.5676C90.344 40.0778 91.1807 41.398 92.2536 42.5435C93.3265 43.6839 94.5688 44.5725 95.9805 45.2146C97.3922 45.8516 98.9014 46.1701 100.503 46.1701C101.889 46.1701 103.198 45.9338 104.435 45.4561C105.672 44.9835 106.858 44.3208 107.998 43.4784C108.486 43.1239 108.968 42.9698 109.446 43.0109C109.918 43.052 110.323 43.2421 110.647 43.5811C110.97 43.9202 111.134 44.3876 111.134 44.9886C111.134 45.2609 111.078 45.5229 110.97 45.7848C110.862 46.0417 110.698 46.2831 110.482 46.4989C109.014 47.6649 107.449 48.5485 105.78 49.1495C104.112 49.7505 102.351 50.0484 100.508 50.0484L100.503 50.0433Z" fill="white"/>
<path d="M116.632 49.6374C115.872 49.6374 115.287 49.3138 114.881 48.6614C114.476 48.009 114.435 47.3156 114.758 46.581L126.201 19.2324C126.606 18.282 127.274 17.8043 128.198 17.8043C129.173 17.8043 129.84 18.282 130.194 19.2324L141.678 46.6632C141.976 47.4234 141.93 48.1118 141.534 48.7231C141.139 49.3343 140.549 49.6425 139.763 49.6425C139.358 49.6425 138.968 49.5295 138.603 49.2984C138.239 49.0672 137.972 48.7487 137.807 48.3429L127.705 23.2391H128.844L118.583 48.3429C118.393 48.7796 118.115 49.1032 117.746 49.3189C117.381 49.5347 117.007 49.6425 116.627 49.6425L116.632 49.6374ZM118.788 42.6256L120.415 39.1223H136.38L138.008 42.6256H118.783H118.788Z" fill="white"/>
<path d="M148.646 49.6374C148.05 49.6374 147.547 49.4319 147.136 49.0261C146.726 48.6203 146.525 48.1169 146.525 47.5159V19.9258C146.525 19.2991 146.731 18.7906 147.136 18.3951C147.542 17.9995 148.045 17.8043 148.646 17.8043H155.976C158.014 17.8043 159.816 18.2307 161.392 19.0885C162.968 19.9464 164.195 21.1176 165.078 22.6124C165.961 24.1072 166.402 25.8486 166.402 27.8315C166.402 29.6807 165.961 31.3245 165.078 32.7628C164.195 34.2012 162.968 35.3313 161.392 36.1429C159.816 36.9597 158.014 37.3655 155.976 37.3655H150.76V47.5159C150.76 48.1118 150.565 48.6152 150.17 49.0261C149.775 49.4319 149.267 49.6374 148.64 49.6374H148.646ZM150.766 33.4563H155.981C157.229 33.4563 158.327 33.22 159.282 32.7423C160.232 32.2697 160.981 31.6019 161.52 30.7441C162.064 29.8862 162.336 28.9153 162.336 27.8315C162.336 26.6346 162.064 25.5764 161.52 24.6518C160.976 23.7271 160.232 23.008 159.282 22.4891C158.332 21.9754 157.234 21.7135 155.981 21.7135H150.766V33.4512V33.4563ZM165.55 49.6374C165.17 49.6374 164.821 49.5552 164.513 49.3908C164.2 49.2265 163.938 48.9696 163.717 48.6152L156.387 36.7953L160.499 35.6138L167.177 46.3755C167.665 47.1614 167.732 47.9063 167.383 48.5946C167.028 49.2881 166.418 49.6323 165.55 49.6323V49.6374Z" fill="white"/>
<path d="M174.384 49.6374C173.788 49.6374 173.285 49.4319 172.875 49.0261C172.464 48.6203 172.264 48.1169 172.264 47.5159V19.9258C172.264 19.2991 172.469 18.7906 172.875 18.3951C173.28 17.9995 173.783 17.8043 174.384 17.8043H192.792C193.419 17.8043 193.917 17.9892 194.302 18.354C194.681 18.7187 194.871 19.2015 194.871 19.8026C194.871 20.4036 194.681 20.8351 194.302 21.1895C193.922 21.544 193.419 21.7186 192.792 21.7186H176.499V31.6225H188.188C188.814 31.6225 189.312 31.8074 189.697 32.1721C190.077 32.5368 190.267 33.0094 190.267 33.5796C190.267 34.1498 190.077 34.6172 189.697 34.9871C189.317 35.3518 188.814 35.5367 188.188 35.5367H176.499V45.7231H192.792C193.419 45.7231 193.917 45.8978 194.302 46.2522C194.681 46.6067 194.871 47.069 194.871 47.6392C194.871 48.2094 194.681 48.7179 194.302 49.0878C193.922 49.4525 193.419 49.6374 192.792 49.6374H174.384Z" fill="white"/>
<path d="M202.896 49.6374C202.3 49.6374 201.797 49.4319 201.386 49.0261C200.976 48.6203 200.775 48.1169 200.775 47.5159V19.9258C200.775 19.2991 200.981 18.7906 201.386 18.3951C201.792 17.9995 202.295 17.8043 202.896 17.8043C203.496 17.8043 204.03 17.9995 204.425 18.3951C204.821 18.7906 205.016 19.2991 205.016 19.9258V47.5159C205.016 48.1118 204.821 48.6152 204.425 49.0261C204.03 49.4319 203.522 49.6374 202.896 49.6374Z" fill="white"/>
<path d="M212.71 49.6374C212.114 49.6374 211.611 49.4319 211.201 49.0261C210.79 48.6203 210.59 48.1169 210.59 47.5159V19.9258C210.59 19.2991 210.795 18.7906 211.201 18.3951C211.606 17.9995 212.109 17.8043 212.71 17.8043H231.119C231.745 17.8043 232.243 17.9892 232.628 18.354C233.008 18.7187 233.198 19.2015 233.198 19.8026C233.198 20.4036 233.008 20.8351 232.628 21.1895C232.248 21.544 231.745 21.7186 231.119 21.7186H214.825V31.6225H226.514C227.14 31.6225 227.638 31.8074 228.023 32.1721C228.403 32.5368 228.593 33.0094 228.593 33.5796C228.593 34.1498 228.403 34.6172 228.023 34.9871C227.643 35.3518 227.14 35.5367 226.514 35.5367H214.825V47.521C214.825 48.1169 214.62 48.6203 214.214 49.0313C213.809 49.4422 213.305 49.6425 212.705 49.6425L212.71 49.6374Z" fill="white"/>
<path d="M240.728 49.6374C240.132 49.6374 239.629 49.4319 239.218 49.0261C238.808 48.6203 238.607 48.1169 238.607 47.5159V19.9258C238.607 19.2991 238.813 18.7906 239.218 18.3951C239.624 17.9995 240.127 17.8043 240.728 17.8043C241.328 17.8043 241.862 17.9995 242.257 18.3951C242.653 18.7906 242.848 19.2991 242.848 19.9258V47.5159C242.848 48.1118 242.653 48.6152 242.257 49.0261C241.862 49.4319 241.354 49.6374 240.728 49.6374Z" fill="white"/>
<path d="M265.245 50.0433C263.048 50.0433 260.99 49.6272 259.075 48.8002C257.16 47.9731 255.492 46.8173 254.065 45.3379C252.637 43.8585 251.524 42.1274 250.723 40.1394C249.922 38.1566 249.521 36.0094 249.521 33.6978C249.521 31.3862 249.922 29.2904 250.723 27.3178C251.524 25.3504 252.637 23.6244 254.065 22.1399C255.492 20.6605 257.155 19.4995 259.054 18.6571C260.954 17.8147 263.017 17.3934 265.245 17.3934C267.335 17.3934 269.136 17.6657 270.641 18.2102C272.15 18.7547 273.659 19.6485 275.184 20.9019C275.399 21.0663 275.569 21.2358 275.692 21.4105C275.815 21.5851 275.897 21.7649 275.938 21.9395C275.979 22.1142 276 22.3248 276 22.5714C276 23.0902 275.815 23.5166 275.451 23.8556C275.086 24.1946 274.645 24.3847 274.126 24.4258C273.608 24.4669 273.11 24.2974 272.617 23.9172C271.611 23.0491 270.574 22.3813 269.501 21.919C268.428 21.4567 267.011 21.2255 265.245 21.2255C263.644 21.2255 262.134 21.5491 260.723 22.2015C259.311 22.8539 258.069 23.7477 256.996 24.8932C255.923 26.0336 255.086 27.3589 254.491 28.8692C253.895 30.3794 253.592 31.9872 253.592 33.6978C253.592 35.4084 253.89 37.0625 254.491 38.5676C255.086 40.0778 255.923 41.398 256.996 42.5435C258.069 43.6839 259.311 44.5725 260.723 45.2146C262.134 45.8516 263.644 46.1701 265.245 46.1701C266.631 46.1701 267.94 45.9338 269.177 45.4561C270.415 44.9835 271.6 44.3208 272.74 43.4784C273.228 43.1239 273.71 42.9698 274.188 43.0109C274.66 43.052 275.066 43.2421 275.389 43.5811C275.712 43.9202 275.877 44.3876 275.877 44.9886C275.877 45.2609 275.82 45.5229 275.712 45.7848C275.605 46.0417 275.44 46.2831 275.225 46.4989C273.757 47.6649 272.191 48.5485 270.522 49.1495C268.854 49.7505 267.093 50.0484 265.25 50.0484L265.245 50.0433Z" fill="white"/>
</svg>
