<svg width="444" height="502" viewBox="0 0 444 502" fill="none" xmlns="http://www.w3.org/2000/svg">
<mask id="mask0_3780_6534" style="mask-type:alpha" maskUnits="userSpaceOnUse" x="0" y="0" width="444" height="502">
<rect width="444" height="502" fill="#D9D9D9"/>
</mask>
<g mask="url(#mask0_3780_6534)">
<path d="M567.686 533.934C509.674 540.972 419.205 550.536 327.356 554.577C319.915 554.913 312.441 555.183 305 555.452L314.36 509.184L317.525 493.559L322.037 471.233L326.851 447.358L327.424 447.459L524.387 476.789L561.793 482.345L563.309 495.344L565.026 510.362L567.753 533.934H567.686Z" fill="#46385F"/>
<path d="M192.26 159.034C192.26 159.034 229.599 175.265 246.736 180.282C263.874 185.333 291.987 201.026 291.987 201.026L278.553 231.097C278.553 231.097 259.059 230.154 253.133 229.177C247.208 228.201 217.444 210.118 217.444 210.118L192.26 159V159.034Z" fill="#F8B94E"/>
<path d="M389.093 138.125C386.492 160.971 355.796 183.47 314.892 183.718C273.989 183.99 251.642 171.948 241.261 154.033C237.322 147.243 236.777 141.742 237.743 136.861C239.279 128.833 244.829 122.39 245.944 114.535C247.777 101.848 246.464 82.2484 256.349 71.6431C266.234 61.0378 285.162 56.082 285.162 56.082C285.162 56.082 305.602 46.6661 326.314 50.8537C347.025 55.0413 346.505 73.3528 358.967 82.4962C366.226 87.8237 376.111 98.0573 382.602 110.174C387.285 118.896 390.183 128.585 389.093 138.149V138.125Z" fill="#7F667C"/>
<g style="mix-blend-mode:multiply" opacity="0.3">
<path d="M389.093 138.125C386.492 160.971 355.796 183.47 314.892 183.718C273.989 183.99 251.642 171.948 241.261 154.033C237.322 147.243 236.777 141.742 237.743 136.861C237.892 137.456 241.336 149.994 248.669 155.346C256.201 160.847 264.946 156.783 264.946 156.783C264.946 156.783 255.928 143.576 252.435 132.054C249.214 121.473 252.782 109.109 253.401 107.176C252.856 109.01 250.106 120.16 259.174 131.41C269.084 143.7 290.786 150.118 290.786 150.118L318.509 128.337L341.055 119.119C341.055 119.119 345.217 125.265 343.334 135.201C341.476 144.988 334.043 153.066 333.919 153.389C334.341 153.166 357.084 145.757 370.562 132.723C384.188 119.516 382.627 110.174 382.627 110.174C387.309 118.896 390.208 128.585 389.118 138.15L389.093 138.125Z" fill="#B834C0"/>
</g>
<path d="M357.827 198.758L346.852 223.859L305.8 264.868L289.424 239.173V202.079L290.737 199.873L297.352 188.698L296.038 174.525L295.766 171.7C295.766 171.7 293.561 171.304 288.556 167.711C287.739 167.116 286.847 166.447 285.906 165.679C284.345 164.44 282.487 162.606 280.505 160.401C280.406 160.302 280.306 160.203 280.232 160.128C273.419 152.62 265.095 141.247 262.122 136.241C258.232 129.7 259.273 113.222 259.124 107.448C259 101.7 259.892 88.2201 259.892 88.2201L281.446 63.3669L321.309 73.0555C321.309 73.0555 340.41 100.387 345.093 108.638C349.775 116.889 343.532 130.195 341.104 130.964C338.676 131.757 335.753 130.171 335.753 130.171C335.505 133.342 334.142 137.034 332.631 140.206C331.566 142.436 330.451 144.418 329.609 145.831C328.816 147.169 328.271 147.987 328.271 147.987C328.271 147.987 328.395 149.895 328.593 152.62C328.865 156.312 329.237 161.541 329.633 165.555C329.708 166.249 329.856 167.042 330.079 167.909C332.012 175.59 339.147 188.649 339.147 188.649L357.778 198.709L357.827 198.758Z" fill="#F8C89E"/>
<g style="mix-blend-mode:multiply" opacity="0.3">
<path d="M338.156 125.091L342.938 108.762C342.938 108.762 345.366 110.942 345.861 114.932C346.357 118.921 338.156 125.091 338.156 125.091Z" fill="#B834C0"/>
</g>
<g style="mix-blend-mode:multiply" opacity="0.3">
<path d="M290.76 107.771L289.05 126.479C289.05 126.479 293.51 127.519 297.647 126.974C301.784 126.429 303.791 125.017 303.791 125.017C303.791 125.017 300.62 128.882 300.224 129.477C299.827 130.072 292.866 131.088 290.14 129.725C287.415 128.362 287.514 126.826 287.514 126.826L290.735 107.746L290.76 107.771Z" fill="#B834C0"/>
</g>
<path d="M332.679 140.256C331.614 142.486 330.499 144.468 329.657 145.88L322.249 156.957C319.425 160.723 315.981 164.787 312.81 167.165C305.7 172.468 295.79 171.675 295.79 171.675C295.79 171.675 293.585 171.279 288.58 167.686L281.742 161.442C285.434 164.316 292.916 168.181 293.188 168.33L287.837 161.095C288.283 161.541 295.368 168.528 296.335 168.801C297.301 169.049 306.79 167.289 307.186 167.017C307.558 166.769 314.841 155.718 315.287 155.024L310.778 164.985C310.778 164.985 318.087 159.806 318.483 159.236C318.88 158.666 332.209 140.875 332.679 140.231V140.256Z" fill="#FFE9A9"/>
<path d="M295.295 225.966C295.295 225.966 303.619 232.111 317.245 231.318C330.896 230.525 344.399 218.359 344.399 218.359L340.113 267.297L324.926 291.704L289.473 272.922L295.32 225.966H295.295Z" fill="#808CC8"/>
<g style="mix-blend-mode:multiply" opacity="0.3">
<path d="M330.129 167.958L297.426 214.295L290.762 199.873L297.377 188.698L296.064 174.525L295.791 171.7C295.791 171.7 305.701 172.493 312.811 167.19C315.983 164.836 319.426 160.773 322.251 156.981L329.658 145.905C328.866 147.243 328.32 148.061 328.32 148.061C328.32 148.061 328.444 149.969 328.643 152.695C328.915 156.387 329.287 161.615 329.683 165.629C329.757 166.323 329.906 167.116 330.129 167.983V167.958Z" fill="#B834C0"/>
</g>
<path d="M437.924 369.708C423.009 382.741 403.115 398.724 403.115 398.724C403.115 398.724 408.318 425.658 410.126 443.449C411.241 454.302 413.694 475.439 415.453 490.306C415.701 492.338 415.924 494.246 416.122 495.98C416.89 502.448 417.41 506.734 417.41 506.734C417.41 506.734 398.581 524.204 345.191 530.274C332.457 531.736 321.606 532.281 312.414 532.281C283.081 532.281 271.065 526.657 271.065 526.657C233.927 518.579 219.186 506.734 219.186 506.734C219.186 506.734 219.88 500.961 220.846 492.734C222.209 481.163 224.141 464.734 225.479 452.618C225.479 452.419 225.504 452.345 225.504 452.345C225.875 448.975 226.197 445.952 226.445 443.449C228.278 425.658 233.456 398.724 233.456 398.724C233.456 398.724 213.562 382.716 198.648 369.708C189.506 361.729 182.247 354.865 182.544 353.477C182.94 351.644 188.217 337.718 195.551 319.605C202.835 301.566 212.175 279.389 220.722 260.879C237.866 223.736 251.369 207.258 258.405 203.343C265.416 199.428 297.376 188.698 297.376 188.698C291.256 230.822 318.286 264.298 318.286 264.298C318.286 264.298 345.315 230.822 339.196 188.698C339.196 188.698 371.155 199.428 378.167 203.343C385.178 207.258 398.68 223.736 415.849 260.879C424.397 279.414 433.737 301.566 441.021 319.605C448.354 337.718 453.631 351.644 454.027 353.477C454.325 354.865 447.066 361.729 437.924 369.708Z" fill="#76BEB7"/>
<path d="M395.806 391.81C390.628 393.768 381.908 397.063 380.842 397.658C380.594 397.807 380.272 398.079 379.876 398.476C379.083 399.269 378.018 400.508 376.829 401.821C374.946 403.902 372.716 406.157 370.709 407.198C366.82 409.23 352.723 418.77 349.75 420.702C349.13 421.099 348.437 421.396 347.693 421.57C347.669 421.57 347.619 421.57 347.594 421.594C347.347 421.644 347.099 421.693 346.851 421.743C344.324 422.164 341.797 421.669 341.797 421.669C341.797 421.669 339.493 422.858 338.923 422.561C338.353 422.263 335.504 419.81 335.504 419.81L334.91 419.315C334.092 418.646 332.705 417.382 332.506 416.589C332.234 415.424 333.374 412.624 333.374 412.624C333.374 412.624 330.97 408.61 331.268 407.842C331.367 407.619 331.664 407.124 332.085 406.554C333.002 405.216 334.365 403.456 334.365 403.456C334.365 403.456 344.522 386.755 345.265 386.582C346.009 386.408 365.903 382.716 366.25 382.791C366.473 382.791 372.072 378.702 377.324 374.837C379.554 373.201 381.709 371.591 383.369 370.352C383.766 370.451 384.187 370.575 384.608 370.748C388.126 372.185 390.579 378.479 394.741 388.143C394.939 388.589 395.113 389.035 395.261 389.481C395.534 390.274 395.732 391.042 395.881 391.785L395.806 391.81Z" fill="#F7C296"/>
<g style="mix-blend-mode:multiply" opacity="0.3">
<path d="M332.037 406.554L343.854 394.511L334.291 403.481C334.291 403.481 332.953 405.24 332.012 406.578L332.037 406.554Z" fill="#B834C0"/>
</g>
<g style="mix-blend-mode:multiply" opacity="0.3">
<path d="M332.928 411.955L345.91 401.177L333.324 412.624L332.928 411.955Z" fill="#B834C0"/>
</g>
<g style="mix-blend-mode:multiply" opacity="0.3">
<path d="M334.859 419.339C334.859 419.339 339.74 414.607 341.697 413.07C343.654 411.534 351.657 406.801 351.657 406.801C351.657 406.801 342.589 413.615 340.136 415.573C337.684 417.531 335.479 419.835 335.479 419.835L334.884 419.339H334.859Z" fill="#B834C0"/>
</g>
<g style="mix-blend-mode:multiply" opacity="0.3">
<path d="M338.922 422.561C339.393 422.313 346.379 418.646 347.296 418.299C348.237 417.927 349.699 417.679 349.947 417.927C350.194 418.175 347.544 421.371 346.825 421.743C346.726 421.793 346.998 421.743 347.593 421.594C347.618 421.594 347.667 421.594 347.692 421.57C348.435 421.371 349.129 421.099 349.748 420.702C352.721 418.745 366.818 409.23 370.708 407.198C372.715 406.157 374.92 403.877 376.827 401.821C376.827 401.821 355.323 412.996 351.21 415.077C347.221 417.085 339.417 422.263 338.947 422.585L338.922 422.561Z" fill="#B834C0"/>
</g>
<g style="mix-blend-mode:multiply" opacity="0.3">
<path d="M394.718 403.209C395.758 400.508 396.724 396.394 395.783 391.81C395.634 391.042 395.436 390.274 395.163 389.506C395.015 389.06 394.841 388.614 394.643 388.168C390.481 378.479 388.028 372.21 384.51 370.773C384.089 370.6 383.668 370.476 383.271 370.377C383.445 370.253 383.594 370.129 383.742 370.03C383.916 370.104 384.089 370.154 384.287 370.228C385.576 370.773 387.929 372.532 390.407 374.763C393.181 377.265 396.105 380.387 397.864 383.187C401.184 388.49 401.283 390.348 401.283 390.348L432.202 374.663L393.107 406.554C393.206 406.405 393.974 405.166 394.718 403.209Z" fill="#B834C0"/>
</g>
<g style="mix-blend-mode:multiply" opacity="0.3">
<path d="M383.768 370.03C383.619 370.129 383.47 370.253 383.297 370.377C380.274 369.732 377.624 371.368 377.252 374.837C377.252 374.663 377.252 372.557 378.193 371.393C379.11 370.278 381.241 369.237 383.768 370.03Z" fill="#B834C0"/>
</g>
<g style="mix-blend-mode:multiply" opacity="0.3">
<path d="M397.493 351.396L386.542 362.745C386.542 362.745 386.468 362.819 386.443 362.844L385.626 363.686L385.576 363.736L378.193 371.368L390.754 355.708C390.754 355.708 368.011 321.835 365.409 301.169C362.783 280.504 366.103 238.975 372.346 225.148C378.392 211.743 383.148 207.828 383.446 207.605C383.124 208.026 374.428 219.325 369.596 240.734C368.432 245.838 367.813 250.472 367.54 254.709V254.858C367.466 256.047 367.441 257.212 367.416 258.327C367.292 270.221 370.34 278.299 373.238 282.858C377.401 289.399 388.574 321.835 388.574 321.835C388.574 321.835 389.218 328.5 390.655 331.003C392.092 333.481 397.518 351.396 397.518 351.396H397.493Z" fill="#B834C0"/>
</g>
<g style="mix-blend-mode:multiply" opacity="0.5">
<path d="M394.717 403.209L393.107 406.554C393.107 406.554 389.638 408.065 385.228 405.315C382.701 403.754 380.917 400.755 379.877 398.476C380.273 398.079 380.595 397.807 380.843 397.658C381.908 397.063 390.629 393.743 395.807 391.81C396.749 396.394 395.758 400.508 394.742 403.209H394.717Z" fill="#B834C0"/>
</g>
<path d="M425.141 358.161C424.645 358.012 412.654 354.568 402.249 355.509C394.098 356.253 388.623 360.688 386.517 362.72L397.467 351.371C397.467 351.371 392.041 333.456 390.605 330.978C389.168 328.5 388.523 321.81 388.523 321.81C388.523 321.81 377.35 289.375 373.188 282.833C370.289 278.249 367.267 270.196 367.366 258.302L367.49 254.833V254.709C367.539 255.527 368.183 269.353 370.314 273.417C372.519 277.605 387.334 312.791 387.334 312.791L395.758 277.208L391.249 325.477C391.249 325.477 393.454 336.182 394.048 337.941C394.643 339.7 398.731 350.603 398.731 350.603C398.731 350.603 412.183 351.594 416.569 353.354C420.83 355.063 424.893 357.962 425.141 358.136V358.161Z" fill="#FFE9A9"/>
<path d="M240.766 391.81C245.944 393.768 254.664 397.063 255.73 397.658C255.978 397.807 256.3 398.079 256.696 398.476C257.489 399.269 258.554 400.508 259.743 401.821C261.626 403.902 263.856 406.157 265.863 407.198C269.752 409.23 283.849 418.77 286.822 420.702C287.442 421.099 288.135 421.396 288.879 421.57C288.903 421.57 288.953 421.57 288.978 421.594C289.225 421.644 289.473 421.693 289.721 421.743C292.248 422.164 294.775 421.669 294.775 421.669C294.775 421.669 297.079 422.858 297.649 422.561C298.219 422.263 301.068 419.81 301.068 419.81L301.662 419.315C302.48 418.646 303.867 417.382 304.066 416.589C304.338 415.424 303.198 412.624 303.198 412.624C303.198 412.624 305.602 408.61 305.304 407.842C305.205 407.619 304.908 407.124 304.487 406.554C303.57 405.216 302.207 403.456 302.207 403.456C302.207 403.456 292.05 386.755 291.307 386.582C290.563 386.408 270.669 382.716 270.322 382.791C270.099 382.791 264.5 378.702 259.248 374.837C257.018 373.201 254.863 371.591 253.203 370.352C252.806 370.451 252.385 370.575 251.964 370.748C248.446 372.185 245.993 378.479 241.831 388.143C241.633 388.589 241.459 389.035 241.311 389.481C241.038 390.274 240.84 391.042 240.691 391.785L240.766 391.81Z" fill="#F7C296"/>
<g style="mix-blend-mode:multiply" opacity="0.3">
<path d="M304.538 406.554L292.721 394.511L302.284 403.481C302.284 403.481 303.622 405.24 304.563 406.578L304.538 406.554Z" fill="#B834C0"/>
</g>
<g style="mix-blend-mode:multiply" opacity="0.3">
<path d="M303.619 411.955L290.662 401.176L303.248 412.624L303.619 411.955Z" fill="#B834C0"/>
</g>
<g style="mix-blend-mode:multiply" opacity="0.3">
<path d="M301.688 419.339C301.688 419.339 296.807 414.607 294.85 413.07C292.893 411.534 284.891 406.801 284.891 406.801C284.891 406.801 293.958 413.615 296.411 415.573C298.864 417.531 301.069 419.835 301.069 419.835L301.663 419.339H301.688Z" fill="#B834C0"/>
</g>
<g style="mix-blend-mode:multiply" opacity="0.3">
<path d="M297.648 422.561C297.177 422.313 290.191 418.646 289.274 418.299C288.332 417.927 286.871 417.679 286.623 417.927C286.375 418.175 289.026 421.371 289.745 421.743C289.844 421.793 289.571 421.743 288.977 421.594C288.952 421.594 288.902 421.594 288.878 421.57C288.134 421.371 287.441 421.099 286.821 420.702C283.848 418.745 269.751 409.23 265.862 407.198C263.855 406.157 261.65 403.877 259.742 401.821C259.742 401.821 281.247 412.996 285.359 415.077C289.348 417.085 297.152 422.263 297.623 422.585L297.648 422.561Z" fill="#B834C0"/>
</g>
<g style="mix-blend-mode:multiply" opacity="0.3">
<path d="M241.83 403.209C240.79 400.508 239.823 396.394 240.765 391.81C240.913 391.042 241.112 390.274 241.384 389.506C241.533 389.06 241.706 388.614 241.904 388.168C246.067 378.479 248.519 372.21 252.037 370.773C252.459 370.6 252.88 370.476 253.276 370.377C253.103 370.253 252.954 370.129 252.805 370.03C252.632 370.104 252.459 370.154 252.26 370.228C250.972 370.773 248.618 372.532 246.141 374.763C243.366 377.265 240.443 380.387 238.684 383.187C235.364 388.49 235.265 390.348 235.265 390.348L204.346 374.663L243.441 406.554C243.341 406.405 242.573 405.166 241.83 403.209Z" fill="#B834C0"/>
</g>
<g style="mix-blend-mode:multiply" opacity="0.3">
<path d="M252.807 370.03C252.955 370.129 253.104 370.253 253.277 370.377C256.3 369.732 258.951 371.368 259.322 374.837C259.322 374.663 259.322 372.557 258.381 371.393C257.464 370.278 255.334 369.237 252.807 370.03Z" fill="#B834C0"/>
</g>
<g style="mix-blend-mode:multiply" opacity="0.3">
<path d="M239.079 351.396L250.03 362.745C250.03 362.745 250.104 362.819 250.129 362.844L250.947 363.686L250.996 363.736L258.379 371.368L245.818 355.708C245.818 355.708 268.562 321.835 271.163 301.169C273.789 280.504 270.469 238.975 264.226 225.148C258.181 211.743 253.424 207.828 253.127 207.605C253.449 208.026 262.145 219.325 266.976 240.734C268.14 245.838 268.76 250.472 269.032 254.709V254.858C269.107 256.047 269.131 257.212 269.156 258.327C269.28 270.221 266.233 278.299 263.334 282.858C259.172 289.399 247.998 321.835 247.998 321.835C247.998 321.835 247.354 328.5 245.917 331.003C244.48 333.481 239.055 351.396 239.055 351.396H239.079Z" fill="#B834C0"/>
</g>
<g style="mix-blend-mode:multiply" opacity="0.5">
<path d="M241.83 403.209L243.44 406.554C243.44 406.554 246.909 408.065 251.318 405.315C253.845 403.754 255.629 400.755 256.67 398.476C256.273 398.079 255.951 397.807 255.704 397.658C254.638 397.063 245.918 393.743 240.74 391.81C239.798 396.394 240.789 400.508 241.805 403.209H241.83Z" fill="#B834C0"/>
</g>
<path d="M211.406 358.161C211.902 358.012 223.893 354.568 234.298 355.509C242.449 356.253 247.924 360.688 250.03 362.72L239.08 351.371C239.08 351.371 244.506 333.456 245.942 330.978C247.379 328.5 248.024 321.81 248.024 321.81C248.024 321.81 259.197 289.375 263.359 282.833C266.258 278.249 269.28 270.196 269.181 258.302L269.057 254.833V254.709C269.008 255.527 268.364 269.353 266.233 273.417C264.028 277.605 249.213 312.791 249.213 312.791L240.789 277.208L245.298 325.477C245.298 325.477 243.093 336.182 242.499 337.941C241.904 339.7 237.816 350.603 237.816 350.603C237.816 350.603 224.364 351.594 219.978 353.354C215.717 355.063 211.654 357.962 211.406 358.136V358.161Z" fill="#FFE9A9"/>
<g style="mix-blend-mode:multiply" opacity="0.3">
<path d="M417.41 506.784C417.41 506.784 398.581 524.253 345.191 530.324C332.456 531.786 321.605 532.331 312.414 532.331C283.08 532.331 271.064 526.706 271.064 526.706C233.927 518.628 219.186 506.784 219.186 506.784C219.186 506.784 219.879 501.011 220.845 492.784C222.208 481.212 224.141 464.784 225.478 452.667C225.181 455.987 223.125 487.456 250.476 503.265C279.389 519.966 305.823 522.89 349.08 506.784C392.337 490.703 410.126 443.474 410.126 443.474C411.241 454.327 413.693 475.463 415.452 490.331C415.7 492.363 415.923 494.271 416.121 496.005C416.889 502.472 417.41 506.759 417.41 506.759V506.784Z" fill="#B834C0"/>
</g>
<g style="mix-blend-mode:multiply" opacity="0.3">
<path d="M417.41 506.784C417.41 506.784 398.581 524.253 345.191 530.324C332.456 531.786 321.605 532.331 312.414 532.331C283.08 532.331 271.064 526.706 271.064 526.706C233.927 518.628 219.186 506.784 219.186 506.784C219.186 506.784 219.879 501.011 220.845 492.784C220.845 492.784 249.584 525.641 309.341 527.995C369.099 530.349 416.146 496.03 416.146 496.03C416.914 502.497 417.434 506.784 417.434 506.784H417.41Z" fill="#B834C0"/>
</g>
<g style="mix-blend-mode:multiply" opacity="0.3">
<path d="M325.717 152.05C323.19 156.015 319.449 161.987 317.418 165.803C314.172 171.873 311.348 176.681 304.089 176.681C296.83 176.681 295.789 171.675 295.789 171.675C295.789 171.675 305.699 172.468 312.809 167.165C317.467 163.696 322.67 156.56 325.717 152.05Z" fill="#B834C0"/>
</g>
<path d="M318.483 134.21C318.483 134.21 314.247 142.957 309.118 148.953C308.127 150.118 307.111 151.183 306.071 152.05C299.704 157.427 295.343 157.626 291.057 155.594C290.611 155.371 290.066 154.999 289.496 154.528C284.69 150.44 276.465 138.05 276.465 138.05C276.465 138.05 287.812 138.595 297.35 137.753C306.913 136.911 318.458 134.234 318.458 134.234L318.483 134.21Z" fill="#711F16"/>
<path d="M281.396 138.174C281.396 138.174 282.957 141.272 286.401 143.105C289.845 144.939 300.894 144.295 305.428 142.585C309.962 140.875 313.951 135.176 313.951 135.176C313.951 135.176 297.5 138.942 281.396 138.174Z" fill="#FFF3EC"/>
<path d="M309.118 148.953C308.127 150.118 307.111 151.183 306.071 152.05C299.703 157.427 295.343 157.626 291.057 155.594C290.611 155.371 290.066 154.999 289.496 154.528C290.76 152.249 293.832 148.358 300.248 147.937C304.138 147.689 307.061 148.234 309.118 148.953Z" fill="#FF824F"/>
<g style="mix-blend-mode:multiply" opacity="0.5">
<path d="M270.364 129.583C274.422 129.181 277.557 127.298 277.367 125.378C277.176 123.458 273.733 122.227 269.675 122.629C265.617 123.032 262.482 124.914 262.673 126.835C262.863 128.755 266.307 129.985 270.364 129.583Z" fill="#FFA57A"/>
</g>
<g style="mix-blend-mode:screen" opacity="0.3">
<path d="M266.636 126.439C268.325 126.272 269.646 125.662 269.588 125.076C269.53 124.49 268.115 124.151 266.426 124.318C264.738 124.485 263.416 125.095 263.474 125.681C263.532 126.267 264.948 126.606 266.636 126.439Z" fill="#F7D591"/>
</g>
<g style="mix-blend-mode:multiply" opacity="0.5">
<path d="M330.097 123.287C330.287 121.367 327.152 119.484 323.095 119.082C319.037 118.68 315.593 119.911 315.403 121.831C315.213 123.751 318.348 125.634 322.406 126.036C326.463 126.438 329.907 125.207 330.097 123.287Z" fill="#FFA57A"/>
</g>
<g style="mix-blend-mode:screen" opacity="0.3">
<path d="M329.344 122.136C329.402 121.551 328.08 120.94 326.392 120.773C324.703 120.606 323.288 120.946 323.23 121.531C323.172 122.117 324.494 122.727 326.182 122.894C327.871 123.061 329.286 122.722 329.344 122.136Z" fill="#F7D591"/>
</g>
<g style="mix-blend-mode:multiply" opacity="0.3">
<path d="M318.484 130.964C318.484 130.964 322.077 130.716 323.365 131.41C324.653 132.103 319.426 145.484 319.426 145.484C319.426 145.484 325.174 134.78 325.942 132.326C326.71 129.873 318.484 130.964 318.484 130.964Z" fill="#B834C0"/>
</g>
<path d="M323.538 110.546C323.538 110.546 322.423 106.259 318.93 104.203C315.437 102.146 309.986 103.93 308.104 106.11C306.221 108.291 306.221 109.877 306.221 109.877C306.221 109.877 307.459 106.061 313.182 105.615C318.905 105.194 321.383 107.87 323.538 110.546Z" fill="#332738"/>
<path d="M285.136 112.379C285.136 112.379 284.021 108.093 280.528 106.036C277.01 103.979 271.584 105.764 269.701 107.944C267.818 110.125 267.818 111.71 267.818 111.71C267.818 111.71 269.057 107.895 274.78 107.448C280.503 107.002 282.981 109.703 285.136 112.379Z" fill="#332738"/>
<g opacity="0.6">
<path d="M314.174 118.574C320.864 118.574 326.288 116 326.288 112.825C326.288 109.651 320.864 107.077 314.174 107.077C307.483 107.077 302.059 109.651 302.059 112.825C302.059 116 307.483 118.574 314.174 118.574Z" fill="white"/>
<path d="M277.035 120.259C283.726 120.259 289.15 117.685 289.15 114.51C289.15 111.335 283.726 108.762 277.035 108.762C270.344 108.762 264.92 111.335 264.92 114.51C264.92 117.685 270.344 120.259 277.035 120.259Z" fill="white"/>
</g>
<path d="M265.218 113.296L259.173 111.041L259.148 111.958L265.218 115.749V113.296Z" fill="#332738"/>
<path d="M325.992 111.562L339.42 106.705V107.424L326.166 113.618L325.992 111.562Z" fill="#332738"/>
<path d="M302.206 113.569C302.206 113.569 298.589 112.603 295.864 112.826C293.139 113.049 289.1 114.932 289.1 114.932L289.051 113.866C289.051 113.866 292.767 112.528 296.186 112.28C299.605 112.008 302.082 112.85 302.082 112.85L302.206 113.594V113.569Z" fill="#332738"/>
<path d="M302.503 89.3352C302.503 89.3352 311.274 86.7086 319.003 89.3352C326.733 91.9618 331.341 97.8343 331.341 97.8343C331.341 97.8343 327.575 93.7211 319.003 92.0113C310.431 90.3016 304.783 93.0025 303.668 92.7299C302.553 92.4573 301.463 90.698 302.503 89.3352Z" fill="#332738"/>
<path d="M260.016 100.783C260.016 100.783 264.946 95.7529 272.106 93.7953C279.241 91.8378 280.678 93.6219 282.561 93.0272C284.444 92.4325 284.369 89.682 281.322 88.8891C278.275 88.0962 265.218 93.9936 260.016 100.783Z" fill="#332738"/>
<g style="mix-blend-mode:multiply" opacity="0.3">
<path d="M302.083 101.105C302.083 101.105 301.291 102.369 301.241 103.286C301.192 104.202 301.241 104.797 301.241 104.797C301.241 104.797 299.234 102.641 302.083 101.13V101.105Z" fill="#B834C0"/>
</g>
<path d="M352.573 127.99C352.573 127.99 343.357 131.657 343.654 127.99C343.976 124.323 344.645 118.178 340.235 111.636C338.897 109.654 337.782 107.25 336.742 104.772C334.339 99.1229 332.109 93.0025 327.501 90.2025C320.886 86.1387 309.589 84.3051 297.672 81.9511C289.471 80.3405 285.408 74.9387 283.674 71.7175V71.6679C282.881 70.2308 282.559 69.2396 282.559 69.2396C281.395 78.16 268.933 86.9069 263.606 91.6149C258.28 96.3228 256.323 111.636 256.323 111.636L254.762 85.3458L278.793 61.5334L294.525 57.7422L331.341 67.6785L349.451 93.0025L352.573 127.99Z" fill="#7F667C"/>
<g style="mix-blend-mode:multiply" opacity="0.3">
<path d="M336.742 104.772C334.339 99.1228 332.109 93.0024 327.501 90.2024C320.886 86.1387 309.589 84.305 297.672 81.9511C289.471 80.3404 285.408 74.9387 283.674 71.7174V71.6679L282.584 69.2643C282.931 69.8094 288.654 78.4077 300.546 79.721C312.834 81.1086 325.098 81.8767 331.341 86.4856C337.584 91.0944 336.742 104.723 336.742 104.723V104.772Z" fill="#B834C0"/>
</g>
<path d="M224.488 90.4751C223.546 93.9937 216.882 110.224 215.618 115.403C214.454 120.111 213.562 130.642 212.819 133.491C212.744 133.764 212.67 133.987 212.596 134.086C212.373 134.433 210.961 134.928 209.028 135.473C203.776 136.935 194.609 138.695 194.609 138.695L194.337 144.344L193.618 159.038L193.098 169.396C193.098 169.396 188.762 172.047 177.589 169.396C176.078 169.049 174.467 168.578 172.683 168.008C170.082 167.166 167.208 166.075 164.012 164.688C142.631 155.272 141.467 154.454 141.467 154.454L146.992 101.576L147.363 97.9335C147.363 97.9335 143.845 98.0078 141.938 96.868C140.005 95.753 130.492 79.1016 129.451 75.1122C128.411 71.1228 131.78 65.6467 132.721 64.4821C133.663 63.3175 140.848 61.8307 141.591 61.7812C142.359 61.7316 151.872 74.0219 151.872 74.0219L150.584 44.7334L151.179 30.5103L174.888 20.0536L212.026 21.3421L221.019 32.1457L221.242 41.4378L223.571 58.7334L221.242 67.7777C221.242 67.7777 225.454 86.9565 224.513 90.4751H224.488Z" fill="#F8C89E"/>
<g style="mix-blend-mode:multiply" opacity="0.3">
<path d="M212.844 74.5423L216.016 86.4609C216.016 86.4609 213.167 87.0804 208.682 86.7335C204.198 86.3866 198.178 84.3795 198.178 84.3795C198.178 84.3795 202.91 88.6167 205.065 90.2769C207.221 91.937 211.953 91.4167 213.687 91.0202C215.421 90.6238 217.007 86.0397 217.007 86.0397L212.869 74.5175L212.844 74.5423Z" fill="#B834C0"/>
</g>
<g style="mix-blend-mode:multiply" opacity="0.3">
<path d="M183.487 84.7263C183.487 84.7263 177.541 87.0307 176.426 88.7157C175.311 90.4006 179.151 108.539 179.151 108.539C179.151 108.539 173.874 94.7865 173.279 90.2767C172.685 85.767 183.512 84.7263 183.512 84.7263H183.487Z" fill="#B834C0"/>
</g>
<g style="mix-blend-mode:multiply" opacity="0.3">
<path d="M198.798 68.1741C198.798 68.1741 195.651 71.6927 192.653 73.4272C189.68 75.1369 183.734 76.1033 183.734 76.1033C183.734 76.1033 189.185 76.0042 192.158 75.2856C195.131 74.5918 198.773 68.1741 198.773 68.1741H198.798Z" fill="#B834C0"/>
</g>
<path d="M233.357 37.5722C233.357 37.5722 232.713 42.8006 230.508 45.4519C228.278 48.1032 223.149 49.3917 220.994 47.9793C219.681 47.1121 218.938 44.4607 218.417 41.7599C218.071 40.0006 217.798 38.2165 217.526 36.928C216.832 33.6572 214.726 29.0731 203.503 28.5527C192.28 28.0324 182.568 34.8218 176.424 35.0696C173.798 35.1935 169.289 34.6731 165.052 34.0289C165.027 34.0289 165.003 34.0289 164.978 34.0289C164.557 33.9545 164.136 33.905 163.714 33.8306C163.69 33.8306 163.665 33.8306 163.64 33.8306C159.726 33.2359 156.232 32.5669 154.82 32.2943H154.771C154.647 32.2696 154.523 32.2448 154.449 32.22C154.25 32.1704 154.176 32.1704 154.176 32.1704C159.255 35.5899 162.005 42.5776 162.476 47.9298C162.946 53.282 154.746 60.1705 153.705 62.2519C152.665 64.3086 153.012 76.6732 152.69 76.1033C152.367 75.5334 141.566 61.8059 141.566 61.8059C141.566 61.8059 134.207 63.0944 133.068 64.1847C131.928 65.2997 130.045 69.4626 130.045 69.4626C130.045 69.4626 125.536 60.6661 129.005 46.5422C129.079 46.2448 129.153 45.9722 129.228 45.6749C133.093 31.0306 144.018 30.0643 144.018 30.0643C144.018 30.0643 142.259 25.9262 144.018 21.8624C145.777 17.7987 154.523 18.9633 162.5 17.4518C170.478 15.9403 172.138 9.42349 189.133 2.36153C206.129 -4.70044 219.012 5.80578 223.199 11.2819C227.411 16.758 231.548 28.6023 231.077 34.8218C230.607 41.0413 222.852 44.5351 222.852 44.5351C222.852 44.5351 224.834 47.4094 228.228 46.1705C231.622 44.9315 233.357 37.597 233.357 37.597V37.5722Z" fill="#8B6873"/>
<path d="M234.547 488.522C234.448 493.825 234.423 499.127 234.448 504.281C234.448 505.149 234.448 506.016 234.448 506.883C234.448 509.733 234.498 512.557 234.523 515.283C234.671 527.127 234.993 537.485 235.241 544.324C229.766 544.572 224.266 544.77 218.79 544.968C206.329 545.389 193.867 545.637 181.579 545.712C177.119 545.736 172.66 545.736 168.25 545.712C166.837 545.712 165.425 545.711 164.013 545.687C159.95 545.637 155.986 545.563 152.171 545.464C118.923 544.522 94.2718 541.202 76.0374 536.841C69.9428 535.379 64.5667 533.818 59.8346 532.182C59.9585 519.173 59.9585 502.299 59.5374 488.324C59.5374 487.828 59.5126 487.308 59.4878 486.812C59.463 486.019 59.4383 485.251 59.4135 484.483C59.4135 484.037 59.3639 483.591 59.3639 483.145C59.3639 482.947 59.3639 482.773 59.3391 482.6C59.3391 482.203 59.2896 481.807 59.2896 481.41C59.1409 477.991 58.9427 474.844 58.7198 472.143C58.6702 471.573 58.6207 471.028 58.5711 470.508C58.5711 470.384 58.5711 470.285 58.5464 470.161C58.5216 469.814 58.472 469.492 58.4472 469.17C58.4225 468.922 58.3977 468.699 58.3729 468.451C58.3234 468.079 58.2738 467.733 58.2491 467.41C58.2491 467.386 58.2491 467.361 58.2491 467.336C58.1995 466.989 58.15 466.667 58.1004 466.345C58.1004 466.345 58.1004 466.32 58.1004 466.295C58.0261 465.825 57.9518 465.379 57.8527 464.957C57.7288 464.387 57.6297 463.892 57.5058 463.471C57.5058 463.446 57.5058 463.421 57.5058 463.396C57.2333 462.479 57.0351 461.315 56.9112 459.927C56.7378 458.217 56.6882 456.235 56.713 453.98C56.713 453.485 56.713 452.94 56.7378 452.419C56.7378 451.948 56.7626 451.453 56.7873 450.957C56.8121 450.387 56.8369 449.793 56.8617 449.198C56.8864 448.727 56.9112 448.232 56.936 447.761C56.9608 447.389 56.9855 447.017 57.0103 446.646C57.0351 446.274 57.0599 445.902 57.0846 445.506C57.0846 445.134 57.1342 444.738 57.1837 444.366C57.2085 443.97 57.2581 443.598 57.2828 443.202C57.3076 442.805 57.3572 442.384 57.3819 441.963C57.3819 441.814 57.4067 441.665 57.4315 441.517C57.4563 441.219 57.481 440.947 57.5058 440.649C57.5058 440.377 57.5554 440.079 57.5801 439.782C57.6297 439.311 57.6792 438.865 57.7288 438.394C57.7783 437.998 57.8031 437.577 57.8527 437.18C57.9765 435.917 58.1252 434.653 58.2738 433.364C58.3482 432.671 58.4473 431.977 58.5216 431.258C58.5216 431.233 58.5216 431.209 58.5216 431.184C58.5216 431.159 58.5216 431.134 58.5216 431.109C58.5216 431.06 58.5216 431.01 58.5216 430.961C58.5959 430.341 58.6702 429.722 58.7693 429.078C58.8189 428.731 58.8684 428.359 58.918 428.012C59.1162 426.501 59.3144 425.014 59.5126 423.527C59.5621 423.106 59.6364 422.709 59.686 422.313C59.8099 421.371 59.9585 420.43 60.0824 419.513C60.1319 419.166 60.1815 418.844 60.231 418.522C60.6027 416.019 60.9495 413.616 61.3211 411.336C61.3955 410.816 61.4946 410.32 61.5689 409.824C61.9405 407.545 62.2874 405.439 62.5847 403.555C62.6838 403.01 62.7581 402.49 62.8572 401.994C63.204 399.938 63.5013 398.253 63.7243 397.039C63.7491 396.865 63.7986 396.716 63.8234 396.568C63.8482 396.419 63.873 396.295 63.8977 396.196C63.8977 396.196 63.9473 395.973 63.9473 395.874C63.9473 395.775 63.9968 395.676 63.9968 395.601C63.9968 395.527 64.0216 395.478 64.0216 395.428C64.0216 395.378 64.0216 395.329 64.0216 395.279C64.0216 395.23 64.0216 395.18 64.0464 395.155C64.0464 395.056 64.0464 395.031 64.0464 395.031L71.8009 395.254L75.3933 395.354L134.432 397.088L153.682 397.658L165.574 398.005L171.049 398.178L206.502 399.219L218.196 399.566L231.673 399.962L233.284 400.012H233.556C233.556 400.012 233.854 402.911 234.225 407.966C234.448 411.014 234.721 414.855 234.944 419.315C235.563 431.308 236.034 447.736 235.365 465.478C235.315 466.865 235.266 468.253 235.191 469.641C234.894 475.761 234.721 482.129 234.622 488.497L234.547 488.522Z" fill="#2E396B"/>
<g style="mix-blend-mode:multiply" opacity="0.3">
<path d="M234.87 419.315C234.87 419.315 232.962 419.092 229.915 418.72C218.667 417.332 191.811 413.987 187.228 413.021C181.381 411.782 116.198 417.679 113.176 419.315C110.996 420.504 106.883 443.747 104.604 459.06C103.712 465.056 103.117 469.814 103.018 471.573C102.845 474.819 105.248 487.085 108.32 499.152C111.194 510.426 114.662 521.503 117.14 524.897C120.261 529.209 138.471 538.674 152.171 545.414C118.924 544.473 94.2725 541.152 76.0382 536.791C69.9435 535.329 64.5674 533.768 59.8354 532.133C60.0336 508.419 59.9097 471.796 57.457 463.446V463.396C57.1845 462.479 56.9863 461.315 56.8624 459.927C56.689 458.242 56.6394 456.235 56.6642 453.98C56.6642 453.46 56.6642 452.94 56.689 452.419C56.689 451.948 56.7137 451.453 56.7385 450.957C56.7633 450.387 56.7881 449.793 56.8128 449.198C56.8376 448.727 56.8624 448.232 56.8872 447.761C56.9119 447.389 56.9367 447.017 56.9615 446.646C56.9863 446.274 57.011 445.902 57.0358 445.506C57.0358 445.134 57.0854 444.738 57.1349 444.366C57.1597 443.97 57.2092 443.598 57.234 443.202C57.2588 442.805 57.3083 442.384 57.3331 441.963C57.3331 441.814 57.3579 441.665 57.3827 441.517C57.4322 440.947 57.4818 440.377 57.5313 439.807C57.5809 439.336 57.6304 438.89 57.68 438.419C57.7295 438.023 57.7543 437.602 57.8038 437.205C57.9277 435.941 58.0763 434.678 58.225 433.389C58.2993 432.695 58.3984 432.002 58.4728 431.283C58.4728 431.233 58.4728 431.184 58.4728 431.134C58.4728 431.085 58.4728 431.035 58.4728 430.986C58.5471 430.366 58.6214 429.747 58.7205 429.102C58.77 428.755 58.8196 428.384 58.8692 428.037C59.0673 426.525 59.2655 425.039 59.4637 423.552C59.5133 423.131 59.5876 422.734 59.6372 422.338C59.7611 421.396 59.9097 420.455 60.0336 419.538C60.0831 419.191 60.1327 418.869 60.1822 418.547C60.5538 416.044 60.9007 413.64 61.2723 411.361C61.3466 410.84 61.4457 410.345 61.5201 409.849C61.8917 407.57 62.2385 405.463 62.5358 403.58C62.6349 403.035 62.7093 402.515 62.8084 402.019C63.1552 399.962 63.4525 398.278 63.6755 397.063C63.7003 396.89 63.7498 396.741 63.7746 396.593C63.7994 396.444 63.8241 396.32 63.8489 396.221C63.8489 396.221 63.8985 395.998 63.8985 395.899C63.8985 395.8 63.948 395.701 63.948 395.626C63.948 395.552 63.9728 395.502 63.9728 395.453C63.9728 395.403 63.9728 395.354 63.9728 395.304C63.9728 395.255 63.9728 395.205 63.9976 395.18C63.9976 395.081 63.9976 395.056 63.9976 395.056L71.7521 395.279L75.3445 395.378L134.383 397.113L153.633 397.683L165.525 398.03L171 398.203L206.453 399.244L218.147 399.591L231.625 399.987L233.235 400.037H233.507C233.507 400.037 233.805 402.936 234.176 407.991C234.399 411.039 234.672 414.879 234.895 419.34L234.87 419.315Z" fill="#B834C0"/>
</g>
<path d="M183.486 402.614L146.126 404.547C146.126 404.547 89.515 414.607 86.542 416.019C85.5262 416.49 82.1321 420.603 78.1185 425.807C76.1118 428.409 73.9316 431.283 71.8257 434.108C71.7514 434.207 71.6771 434.281 71.6275 434.38C65.7559 442.26 60.4045 449.718 60.4045 449.718L61.9901 467.237L62.5351 473.233L66.4248 516.225C66.4248 516.225 71.132 527.425 76.087 536.816C69.9924 535.354 64.6162 533.793 59.8842 532.157C60.0824 508.444 59.9585 471.821 57.5058 463.471V463.421C57.2333 462.504 57.0351 461.34 56.9112 459.952C56.7378 458.267 56.6882 456.26 56.713 454.005C56.713 453.509 56.713 452.964 56.7378 452.444C56.7378 451.973 56.7626 451.478 56.7873 450.982C56.8121 450.412 56.8369 449.817 56.8617 449.223C56.8864 448.752 56.9112 448.256 56.936 447.786C56.9608 447.414 56.9855 447.042 57.0103 446.671C57.0351 446.299 57.0599 445.927 57.0846 445.531C57.0846 445.159 57.1342 444.763 57.1837 444.391C57.2085 443.994 57.2581 443.623 57.2828 443.226C57.3076 442.83 57.3572 442.409 57.3819 441.987C57.3819 441.839 57.4067 441.69 57.4315 441.541C57.481 440.971 57.5306 440.401 57.6049 439.832C57.6545 439.361 57.704 438.915 57.7536 438.444C57.8031 438.048 57.8279 437.626 57.8774 437.23C58.0013 435.966 58.15 434.702 58.2986 433.414C58.3729 432.72 58.472 432.026 58.5464 431.308C58.5464 431.258 58.5464 431.209 58.5464 431.159C58.5464 431.109 58.5464 431.06 58.5464 431.01C58.6207 430.391 58.695 429.771 58.7941 429.127C58.8437 428.78 58.8932 428.409 58.9427 428.062C59.1409 426.55 59.3392 425.063 59.5374 423.577C59.5869 423.155 59.6612 422.759 59.7108 422.362C59.8346 421.421 59.9833 420.479 60.1072 419.562C60.1567 419.216 60.2063 418.893 60.2558 418.571C60.6274 416.069 60.9743 413.665 61.3459 411.385C61.4202 410.865 61.5193 410.37 61.5937 409.874C61.9653 407.594 62.3121 405.488 62.6094 403.605C62.7085 403.06 62.7829 402.539 62.882 402.044C63.2288 399.987 63.5261 398.302 63.7491 397.088L71.8753 395.279L75.4676 394.486L88.3506 391.612L127.767 382.865L150.337 390.844L153.583 391.984L165.574 396.221L171.124 398.178L183.61 402.589L183.486 402.614Z" fill="#FFE9A9"/>
<g style="mix-blend-mode:multiply" opacity="0.3">
<path d="M177.837 480.593L180.141 520.214L181.628 545.712C177.168 545.736 172.709 545.736 168.299 545.712L169.86 519.818L172.436 477.074C172.436 477.074 182.594 465.701 184.006 458.961C185.418 452.221 189.605 429.449 189.605 429.449C189.605 429.449 186.806 450.264 185.914 462.083C185.047 473.903 177.862 480.593 177.862 480.593H177.837Z" fill="#B834C0"/>
</g>
<path d="M255.234 241.502C255.234 246.185 255.135 250.918 254.962 255.7C254.541 267.817 253.673 280.033 252.633 291.159C252.014 297.799 251.345 304.044 250.676 309.644C249.387 320.423 248.149 328.823 247.381 333.109C246.613 337.346 245.646 343.244 244.581 349.86C243.962 353.7 243.318 357.789 242.649 361.977C242.203 364.801 241.757 367.651 241.311 370.501C240.171 377.711 239.056 384.798 238.09 390.819C236.529 400.409 235.315 407.297 234.894 407.793C234.671 408.04 233.185 408.04 230.781 407.842C227.784 407.594 223.374 407.074 218.419 406.455C214.727 405.984 210.738 405.463 206.799 404.968C196.84 403.679 187.178 402.515 183.486 402.614C180.439 402.688 173.626 402.713 165.698 402.763C161.858 402.763 157.795 402.812 153.756 402.837C142.459 402.936 131.558 403.109 127.668 403.555C119.493 404.497 75.3436 413.021 75.3436 413.021C75.3436 413.021 75.963 415.598 76.6815 418.794C76.6815 418.794 76.6815 418.819 76.6815 418.844C77.7963 423.899 79.1342 430.465 78.49 430.688C77.5734 430.986 56.9606 442.855 49.875 445.432C48.884 445.779 48.1408 445.977 47.7691 445.902C44.7218 445.432 40.5349 443.796 39.3457 439.088C38.8254 437.032 31.5663 422.263 23.4402 406.033C12.9852 385.145 1.11798 361.803 0.325182 359.821C-1.08699 356.302 2.43105 337.247 4.53692 332.292C5.08197 331.053 6.76666 326.122 9.24415 318.837C16.528 297.329 30.5258 255.081 40.9808 225.024C48.661 202.971 57.035 189.541 63.9472 181.463C64.6904 180.596 65.4089 179.803 66.1026 179.059C67.4404 177.647 68.7039 176.458 69.8684 175.417C72.8661 172.79 75.2941 171.328 76.8797 170.56C79.1342 169.47 87.4585 167.413 96.6253 165.357C110.326 162.259 125.884 159.137 125.884 159.137C125.984 159.36 134.382 164.613 144.862 171.031C148.231 173.088 151.799 175.268 155.367 177.424C156.283 177.969 157.2 178.539 158.117 179.084C171.396 187.112 184.031 194.546 185.419 194.868C187.054 195.24 192.95 190.21 198.128 185.229C199.714 183.718 201.225 182.206 202.538 180.843C204.991 178.316 206.725 176.309 206.898 175.838C207.245 174.847 206.155 170.387 205.238 166.967C205.238 166.967 206.502 167.512 208.558 168.404C213.464 170.56 222.928 174.698 231.004 178.366C237.099 181.116 242.426 183.594 244.408 184.709C244.854 184.957 245.126 185.13 245.2 185.229C248.322 189.144 250.601 195.265 252.162 202.847C254.367 213.527 255.185 227.081 255.185 241.428L255.234 241.502Z" fill="#F8B94E"/>
<path d="M110.375 497.046C110.251 498.211 104.528 501.754 104.528 501.754C104.528 501.754 104.107 506.09 103.017 507.404C101.927 508.717 97.0712 509.51 97.0712 509.51C97.0712 509.51 91.8189 510.749 90.8775 510.749C89.936 510.749 87.7806 507.676 87.7806 507.676C87.7806 507.676 84.2378 506.611 81.3144 504.405C81.0171 504.182 80.7198 503.959 80.4472 503.712C80.3977 503.687 80.3729 503.637 80.3234 503.613C79.5058 502.869 78.7873 502.051 78.267 501.11C75.7648 496.65 64.0215 475.067 60.4043 469.888C58.5462 467.212 57.2084 462.851 56.1431 458.936C55.1521 455.244 54.4336 451.973 53.7399 450.957C52.3277 448.851 49.875 445.407 49.875 445.407L76.8053 431.531C76.8053 431.531 81.7603 441.641 82.231 441.765C82.7018 441.888 105.718 459.878 106.535 460.572C107.353 461.265 109.335 489.389 109.335 489.389C109.335 489.389 109.905 492.536 110.202 494.841C110.351 495.832 110.425 496.674 110.375 497.046Z" fill="#F7C296"/>
<g style="mix-blend-mode:multiply" opacity="0.3">
<path d="M110.202 494.865L103.018 471.598L109.335 489.414C109.335 489.414 109.905 492.561 110.202 494.865Z" fill="#B834C0"/>
</g>
<g style="mix-blend-mode:multiply" opacity="0.3">
<path d="M105.47 501.159L96.0059 478.734L104.528 501.754L105.47 501.159Z" fill="#B834C0"/>
</g>
<g style="mix-blend-mode:multiply" opacity="0.3">
<path d="M98.1367 509.311C98.1367 509.311 95.0398 499.995 93.5285 496.749C92.0173 493.503 84.9316 482.104 84.9316 482.104C84.9316 482.104 92.0173 496.823 93.8754 500.986C95.7087 505.124 97.0218 509.534 97.0218 509.534L98.1119 509.311H98.1367Z" fill="#B834C0"/>
</g>
<g style="mix-blend-mode:multiply" opacity="0.3">
<path d="M90.8536 510.724C90.4076 510.08 83.8918 500.763 82.9504 499.697C81.9841 498.582 80.2747 497.318 79.804 497.442C79.3085 497.566 80.5967 503.464 81.2904 504.405C81.3895 504.554 81.0675 504.256 80.4233 503.711C80.3738 503.687 80.349 503.637 80.2995 503.612C79.4819 502.869 78.7634 502.051 78.2431 501.11C75.7409 496.649 63.9976 475.067 60.3804 469.888C58.5223 467.212 57.1845 462.851 56.1191 458.936C56.1191 458.936 76.2364 487.556 80.126 492.933C83.8918 498.136 90.4324 509.98 90.8536 510.724Z" fill="#B834C0"/>
</g>
<g style="mix-blend-mode:multiply" opacity="0.1">
<path d="M252.236 202.896C231.153 202.401 195.13 201.558 183.61 201.311C172.164 201.063 132.375 200.493 108.566 200.146C105.668 191.275 100.515 184.436 91.8433 183.173C86.4424 182.38 81.9829 181.958 78.3162 181.76C74.5504 181.562 71.627 181.636 69.3477 181.859L66.127 179.059C67.4648 177.647 68.7283 176.457 69.8927 175.417C73.4603 175.516 77.9941 175.615 83.1473 175.764C106.535 176.358 142.409 177.25 155.416 177.473C156.481 177.473 157.398 177.498 158.141 177.523C163.988 177.597 182.519 179.109 202.612 180.893C217.13 182.181 232.466 183.619 244.482 184.758C244.927 185.006 245.2 185.18 245.274 185.279C248.396 189.194 250.675 195.314 252.236 202.896Z" fill="#B834C0"/>
<path d="M255.235 241.502C255.235 246.185 255.136 250.918 254.963 255.7C227.438 255.353 189.854 255.13 176.897 256.196C162.849 257.36 127.248 259.442 104.529 260.73C106.487 254.907 107.923 251.091 108.815 249.927C109.36 249.183 110.128 246.111 110.748 241.675C127.124 242.047 148.827 242.443 166.442 242.468C186.609 242.468 226.917 241.948 255.21 241.527L255.235 241.502Z" fill="#B834C0"/>
<path d="M252.658 291.159C252.038 297.799 251.369 304.044 250.7 309.644C224.711 309.644 174.939 309.966 154.425 312.518C136.587 314.723 106.188 315.566 86.0215 315.863C87.6319 311.403 89.1431 307.067 90.5801 302.879C117.188 302.929 159.083 302.507 173.923 301.045C188.664 299.608 227.957 294.454 252.658 291.134V291.159Z" fill="#B834C0"/>
<path d="M244.582 349.86C243.963 353.7 243.319 357.789 242.65 361.976C213.217 361.902 159.183 361.778 144.368 362.051C130.296 362.299 96.0071 367.254 75.4688 370.426C75.6669 366.585 75.989 362.274 76.5093 357.591C105.199 355.93 148.431 353.477 169.836 352.536C191.886 351.569 224.614 350.504 244.582 349.884V349.86Z" fill="#B834C0"/>
<path d="M238.09 390.819C236.529 400.409 235.315 407.297 234.894 407.793C233.73 409.205 192.133 402.391 183.486 402.614C174.84 402.862 135.844 402.614 127.668 403.555C119.493 404.497 75.3438 413.021 75.3438 413.021V392.083C89.8123 391.538 115.256 390.67 134.209 390.794C155.813 390.943 212.993 390.844 238.09 390.794V390.819Z" fill="#B834C0"/>
</g>
<g style="mix-blend-mode:multiply" opacity="0.1">
<path d="M165.698 402.763C161.858 402.763 157.795 402.812 153.756 402.837C152.542 358.334 150.189 275.796 148.925 256.196C147.166 229.038 142.385 170.585 142.385 170.585L144.912 171.081L158.043 173.633C158.043 173.633 158.092 175.64 158.191 179.134C158.736 199.849 160.644 273.268 161.561 296.982C162.329 317.077 164.558 373.276 165.723 402.738L165.698 402.763Z" fill="#B834C0"/>
<path d="M218.419 406.455C214.728 405.984 210.739 405.463 206.8 404.968C204.818 373.424 201.275 315.492 200.78 296.982C200.21 276.192 198.748 210.38 198.203 185.254C199.789 183.743 201.3 182.231 202.613 180.868C205.066 178.341 206.8 176.334 206.973 175.863C207.32 174.872 206.23 170.412 205.314 166.992C205.314 166.992 206.577 167.537 208.633 168.429C209.03 182.875 210.095 218.755 210.913 229.36C211.78 240.412 216.685 363.315 218.395 406.455H218.419Z" fill="#B834C0"/>
<path d="M255.234 241.502C255.234 246.185 255.135 250.918 254.962 255.7C254.54 267.817 253.673 280.033 252.633 291.159C252.013 297.799 251.344 304.044 250.675 309.644C249.387 320.422 248.148 328.822 247.38 333.109C246.612 337.346 245.646 343.244 244.581 349.86C243.961 353.7 243.317 357.789 242.648 361.977C242.202 364.801 241.757 367.651 241.311 370.5C240.171 377.711 239.056 384.798 238.09 390.819C236.529 400.409 235.315 407.297 234.894 407.793C234.671 408.04 233.184 408.04 230.781 407.842C233.209 385.318 242.648 295.743 241.311 269.601C240.072 245.169 233.482 195.859 231.079 178.415C237.173 181.165 242.5 183.643 244.482 184.758C244.928 185.006 245.2 185.18 245.275 185.279C248.396 189.194 250.676 195.314 252.236 202.896C254.441 213.576 255.259 227.13 255.259 241.477L255.234 241.502Z" fill="#B834C0"/>
</g>
<g style="mix-blend-mode:multiply" opacity="0.3">
<path d="M241.31 370.501C238.362 389.233 235.538 407 234.893 407.793C233.729 409.205 192.132 402.391 183.485 402.614C174.839 402.862 135.843 402.614 127.668 403.555C119.492 404.497 75.343 413.021 75.343 413.021V339.453C75.343 339.453 109.334 269.601 110.92 235.183C111.663 219.003 109.755 208.422 106.906 201.187C106.039 199.006 105.098 197.123 104.107 195.512C101.381 191.028 98.3093 188.401 95.8566 186.344C93.9737 184.758 90.4061 183.718 86.3183 182.974C83.2214 182.429 79.852 182.082 76.6561 181.859C70.0164 181.389 64.2686 181.488 63.9961 181.488C64.2686 181.438 72.3205 180.422 84.0142 181.488C95.931 182.578 104.082 189.987 108.987 195.884C113.893 201.806 115.057 225.049 114.363 253.272C113.67 281.495 111.787 339.477 139.485 366.288C167.159 393.099 241.335 370.501 241.335 370.501H241.31Z" fill="#B834C0"/>
</g>
<g style="mix-blend-mode:multiply" opacity="0.1">
<path d="M106.882 201.187C106.015 199.006 105.074 197.123 104.083 195.512C103.884 196.082 80.373 268.114 69.918 292.348C59.4134 316.706 51.0395 349.934 49.8751 366.139C48.7106 382.37 46.1341 422.363 46.1341 422.363C46.1341 422.363 42.5665 422.189 41.5259 422.363C40.9809 422.462 32.7061 404.671 24.679 387.053C23.1925 374.564 20.4425 349.637 21.1362 340.964C22.0776 329.194 26.0416 313.212 26.2646 309.693C26.5123 306.175 48.2152 255.13 56.3909 238.429C64.5666 221.729 86.2942 182.974 86.2942 182.974C83.1973 182.429 79.8279 182.082 76.632 181.859L17.6429 306.67C11.6722 322.306 10.3095 341.262 10.2352 354.741C9.83882 353.824 9.5663 353.18 9.4672 352.883C8.42665 349.984 8.94692 329.194 9.269 318.861C6.81628 326.146 5.10681 331.053 4.56177 332.316C2.4559 337.247 -1.03737 356.302 0.35003 359.846C1.14283 361.828 13.01 385.17 23.465 406.058C31.5912 422.313 38.8502 437.056 39.3705 439.113C40.5349 443.821 44.7467 445.456 47.794 445.927C48.1656 445.977 48.8841 445.803 49.8998 445.456C56.9855 442.855 77.5982 431.01 78.5149 430.713C79.159 430.49 77.8212 423.899 76.7063 418.844C75.9878 415.648 75.3684 413.071 75.3684 413.071C75.3684 413.071 69.6702 415.623 62.9314 418.448C56.1927 421.272 54.0868 421.347 54.0868 421.347C54.0868 421.347 57.6792 367.354 58.7445 360.663C59.785 353.998 106.511 202.574 106.932 201.236L106.882 201.187Z" fill="#B834C0"/>
</g>
<path d="M45.7134 438.766L49.8508 445.407C48.8599 445.778 48.1166 445.952 47.745 445.902C44.6977 445.432 40.5107 443.796 39.3215 439.088C38.8012 437.031 31.5422 422.263 23.416 406.033L43.6323 435.148C43.6323 435.148 57.8779 432.324 63.923 428.731C69.7947 425.262 76.2113 419.191 76.6077 418.819C66.8217 432.076 45.6639 438.791 45.6639 438.791L45.7134 438.766Z" fill="#FFE9A9"/>
<g style="mix-blend-mode:multiply" opacity="0.1">
<path d="M111.045 227.651C98.4845 222.571 67.0204 209.81 62.3627 208.224C58.8943 207.035 52.9235 206.465 48.5879 206.217C51.7095 199.601 54.8064 194.15 57.7794 189.69C57.7794 189.69 78.8133 191.771 83.5948 193.307C87.2615 194.472 101.111 200.22 107.478 202.897C109.534 208.794 110.971 216.723 111.045 227.675V227.651Z" fill="#B834C0"/>
</g>
<g style="mix-blend-mode:multiply" opacity="0.1">
<path d="M101.58 275.721C99.6721 281.396 97.6157 287.095 95.4851 292.621C79.8521 286.178 59.4872 277.828 55.6966 276.564C51.8317 275.275 36.7438 272.302 25.5703 270.196C27.8248 263.456 30.1537 256.617 32.4082 249.927C38.701 252.504 52.2529 258.079 58.9421 261.275C64.8385 264.075 87.1855 271.236 101.555 275.746L101.58 275.721Z" fill="#B834C0"/>
</g>
<g style="mix-blend-mode:multiply" opacity="0.1">
<path d="M80.8931 327.484C77.5485 334.868 75.3188 339.452 75.3188 339.452V356.872C56.9606 347.902 21.0865 330.656 17.1473 330.631C14.645 330.631 9.93779 329.987 5.62695 329.343C6.4693 326.964 7.70804 323.346 9.24409 318.837C10.0864 316.309 11.0279 313.534 12.0684 310.486C19.9221 312.369 28.5685 314.203 30.9469 313.881C34.019 313.46 62.0642 321.76 80.8931 327.484Z" fill="#B834C0"/>
</g>
<g style="mix-blend-mode:multiply" opacity="0.1">
<path d="M75.318 375.109V393.396C64.9869 394.263 41.1287 396.047 36.7683 394.387C34.1174 393.371 24.9011 392.108 15.9326 391.067C12.0925 383.435 8.47535 376.249 5.67578 370.699C16.6758 374.044 33.8696 379.123 37.016 379.123C40.5341 379.123 64.0207 376.447 75.318 375.134V375.109Z" fill="#B834C0"/>
</g>
<path d="M96.6239 165.381C96.277 165.629 88.0518 171.601 83.1216 175.764C81.5608 177.077 80.3468 178.217 79.8265 178.911C79.6283 179.183 79.108 180.174 78.3152 181.76C70.3129 197.966 34.9096 276.143 32.5808 281.916C30.0042 288.26 16.5762 317.895 16.5762 317.895L55.3241 304.391C54.2836 304.936 20.6393 322.43 18.682 325.552C16.7001 328.723 5.35315 342.129 4.65945 346.837C3.96575 351.545 14.6933 371.888 15.7586 373.301C16.7992 374.713 33.3736 381.601 38.9727 381.601C44.5718 381.601 62.4841 374.837 63.0539 374.639C62.5336 374.936 46.0088 384.525 41.8714 385.492C37.6596 386.458 15.6595 384.501 15.6595 384.501L23.4636 406.009C13.0086 385.12 1.14142 361.778 0.348619 359.796C-1.06355 356.277 2.45449 337.223 4.56035 332.267C5.1054 331.028 6.7901 326.097 9.26759 318.812C16.5514 297.304 30.5492 255.056 41.0042 224.999C48.6845 202.946 57.0584 189.516 63.9706 181.438C64.7138 180.571 65.4323 179.778 66.126 179.035C67.4638 177.622 68.7274 176.433 69.8918 175.392C72.8895 172.766 75.3175 171.304 76.9031 170.535C79.1576 169.445 87.482 167.388 96.6239 165.332V165.381Z" fill="#FFE9A9"/>
<path d="M206.973 175.863C206.378 177.498 188.516 195.612 185.468 194.918C182.446 194.224 126.132 159.757 125.909 159.162C125.662 158.567 130.567 149.275 131.162 149.275C131.756 149.275 141.443 154.454 141.443 154.454C141.443 154.454 142.608 155.272 163.988 164.688C185.369 174.079 193.074 169.396 193.074 169.396L193.595 159.038L204.173 162.928C204.173 162.928 204.718 164.737 205.338 166.992C206.254 170.412 207.345 174.872 206.998 175.863H206.973Z" fill="#DF801A"/>
<g style="mix-blend-mode:multiply" opacity="0.3">
<path d="M209.005 135.498C203.753 136.96 194.586 138.719 194.586 138.719L194.314 144.369L193.595 159.063C193.595 159.063 187.575 155.123 181.703 149.325C175.832 143.502 157.523 115.626 157.523 115.626L177.566 169.42C176.054 169.073 174.444 168.603 172.66 168.033C168.919 156.114 153.286 106.556 152.518 105.541C151.626 104.401 146.969 101.601 146.969 101.601L147.34 97.9582C150.165 97.7848 152.345 96.1741 153.559 94.9848C154.277 94.3157 154.649 93.7706 154.649 93.7706C154.649 93.7706 165.748 115.997 168.548 118.946C168.919 119.342 169.415 119.813 170.034 120.383C174.048 124.1 182.843 131.087 190.845 133.64C199.863 136.514 208.609 135.548 209.005 135.498Z" fill="#B834C0"/>
</g>
<path d="M180.515 90.2768C180.515 90.2768 193.324 94.6874 203.135 96.4467C212.945 98.206 216.265 98.3051 216.265 98.3051C216.265 98.3051 212.053 98.999 211.979 99.6184C211.905 100.238 212.326 104.822 206.281 106.581C200.236 108.341 187.006 102.27 185.074 100.684C183.141 99.0981 180.49 90.2768 180.49 90.2768H180.515Z" fill="#711F16"/>
<path d="M184.132 91.4662C184.132 91.4662 184.058 94.6627 184.603 96.075C185.148 97.4874 192.011 100.015 199.542 100.907C207.074 101.799 207.842 102.072 208.015 102.542C208.189 103.013 209.304 102.245 209.477 101.774C209.65 101.303 209.477 97.5122 209.477 97.5122C209.477 97.5122 199.394 96.2733 184.132 91.4662Z" fill="#FFF3EC"/>
<path d="M175.905 66.0183C175.905 66.0183 182.916 65.0272 186.137 65.5971C189.357 66.1918 192.281 68.5458 192.974 68.5458C193.668 68.5458 190.472 64.1351 188.416 63.6643C186.36 63.1935 176.251 65.275 175.731 65.498C175.211 65.721 174.79 66.167 175.905 66.0183Z" fill="#332738"/>
<path d="M222.134 72.1883C222.134 72.1883 218.74 70.9493 217.13 70.7511C215.519 70.5529 213.265 70.9741 212.893 70.7511C212.522 70.5281 214.504 69.983 215.965 69.5865C217.427 69.19 221.688 70.0325 221.688 70.0325L222.134 72.1883Z" fill="#332738"/>
<path d="M191.538 80.4149C198.379 80.4149 203.925 74.3133 203.925 66.7865C203.925 59.2598 198.379 53.1582 191.538 53.1582C184.696 53.1582 179.15 59.2598 179.15 66.7865C179.15 74.3133 184.696 80.4149 191.538 80.4149Z" stroke="#332738" stroke-width="0.75" stroke-miterlimit="10"/>
<path d="M224.637 83.9335C231.479 83.9335 237.025 77.8318 237.025 70.3051C237.025 62.7784 231.479 56.6768 224.637 56.6768C217.796 56.6768 212.25 62.7784 212.25 70.3051C212.25 77.8318 217.796 83.9335 224.637 83.9335Z" stroke="#332738" stroke-width="0.75" stroke-miterlimit="10"/>
<path d="M213.415 64.5068C213.415 64.5068 211.457 63.2183 209.104 63.1688C205.957 63.1192 203.926 64.8785 203.926 64.8785" stroke="#332738" stroke-width="0.75" stroke-miterlimit="10"/>
<path d="M181.107 59.4272L142.235 62.6484L141.566 61.7812L183.758 56.1812L181.107 59.4272Z" fill="#332738"/>
<g style="mix-blend-mode:multiply" opacity="0.5">
<path d="M173.848 82.8927C179.308 82.8927 183.733 80.7959 183.733 78.2095C183.733 75.623 179.308 73.5263 173.848 73.5263C168.389 73.5263 163.963 75.623 163.963 78.2095C163.963 80.7959 168.389 82.8927 173.848 82.8927Z" fill="#FFA57A"/>
</g>
<g style="mix-blend-mode:multiply" opacity="0.3">
<path d="M144.638 72.213L152.715 87.1299C152.715 87.1299 143.87 87.5263 139.287 83.9086C134.704 80.2909 133.688 73.6502 136.686 71.6431C139.683 69.636 144.638 72.213 144.638 72.213Z" fill="#B834C0"/>
</g>
<path d="M195.007 43.6678C195.007 43.6678 194.511 48.3758 191.291 49.0944C188.07 49.7882 178.482 49.7882 176.599 50.5068C174.716 51.2254 171 52.7616 171 52.7616C171 52.7616 174.89 48.5245 178.829 47.3846C182.768 46.2448 193.248 45.0802 194.982 43.6678H195.007Z" fill="#332738"/>
<path d="M222.705 52.5139C222.705 52.5139 216.883 49.5156 214.43 48.4253C211.977 47.3351 208.855 46.3192 208.855 46.3192C208.855 46.3192 209.723 49.367 210.689 50.0608C211.655 50.7546 222.878 53.951 222.878 53.951L222.68 52.5386L222.705 52.5139Z" fill="#332738"/>
<g style="mix-blend-mode:screen" opacity="0.3">
<path d="M169.24 78.2095C171.498 78.2095 173.328 77.5771 173.328 76.7971C173.328 76.017 171.498 75.3847 169.24 75.3847C166.983 75.3847 165.152 76.017 165.152 76.7971C165.152 77.5771 166.983 78.2095 169.24 78.2095Z" fill="#F7D591"/>
</g>
<path d="M154.772 32.2696C154.648 32.2448 154.524 32.22 154.449 32.1952C154.548 32.1952 154.648 32.2448 154.772 32.2696Z" stroke="#F8C89E" stroke-width="0.25" stroke-miterlimit="10"/>
<path d="M154.82 32.2697C155.91 32.4679 158.512 32.9139 163.64 33.8059C159.726 33.2113 156.232 32.5422 154.82 32.2697Z" stroke="#F8C89E" stroke-width="0.25" stroke-miterlimit="10"/>
<g style="mix-blend-mode:multiply" opacity="0.3">
<path d="M162.452 47.9049C162.923 53.2572 154.722 60.1457 153.682 62.2271C152.641 64.2837 152.988 76.6484 152.666 76.0785C152.344 75.5085 141.542 61.7811 141.542 61.7811C141.542 61.7811 134.184 63.0696 133.044 64.1599C131.905 65.2749 130.022 69.4377 130.022 69.4377C130.022 69.4377 125.513 60.6413 128.981 46.5173C128.411 52.4642 135.596 54.1244 141.542 54.9917C147.488 55.8837 156.159 51.1014 157.126 45.3775C158.092 39.6536 154.153 32.1456 154.153 32.1456C159.231 35.5651 161.981 42.5527 162.452 47.9049Z" fill="#B834C0"/>
</g>
<g style="mix-blend-mode:multiply" opacity="0.3">
<path d="M219.162 34.0041C218.147 35.5404 218.37 41.2891 218.394 41.7351C218.048 39.9758 217.775 38.1917 217.503 36.9032C216.809 33.6324 214.703 29.0483 203.48 28.528C192.257 28.0076 182.545 34.797 176.401 35.0448C173.775 35.1687 169.266 34.6483 165.029 34.0041C171.842 34.9209 176.277 33.2112 188.243 27.289C200.854 21.02 210.665 17.7492 216.635 20.0288C222.581 22.3085 220.228 32.3935 219.162 34.0041Z" fill="#B834C0"/>
</g>
<g style="mix-blend-mode:multiply" opacity="0.3">
<path d="M209.004 135.498C203.752 136.96 194.585 138.719 194.585 138.719C194.585 138.719 187.524 139.017 181.801 135.127C176.177 131.311 170.256 120.829 170.033 120.408C174.047 124.125 182.842 131.112 190.844 133.665C199.862 136.539 208.608 135.573 209.004 135.523V135.498Z" fill="#B834C0"/>
</g>
<path d="M212.795 133.516C212.721 133.788 212.647 134.011 212.572 134.111C212.349 134.457 210.937 134.953 209.005 135.498C208.608 135.548 199.863 136.514 190.845 133.64C182.843 131.088 174.047 124.1 170.034 120.383C169.415 119.813 168.919 119.318 168.547 118.946C165.748 115.997 154.649 93.7706 154.649 93.7706C154.649 93.7706 154.277 94.291 153.559 94.9848L156.16 92.0114L167.383 115.006L186.014 131.063L180.984 113.866L189.507 130.666L203.802 134.656L212.795 133.516Z" fill="#FFE9A9"/>
<path d="M378.264 211.024C378.264 211.024 374.622 211.321 372.615 209.661C371.897 209.067 371.426 208.447 371.104 207.852C370.584 206.911 370.46 206.118 370.46 205.969H370.435C370.336 206.044 369.964 206.316 369.395 206.564C368.305 207.059 366.521 207.506 364.663 206.415C362.359 205.052 361.021 200.592 360.525 198.585C360.525 198.536 360.5 198.486 360.5 198.461C360.426 198.164 360.377 197.916 360.327 197.767V197.644L360.302 197.594C360.302 197.594 359.931 197.99 359.336 198.288C358.37 198.783 356.71 199.18 354.48 198.114C353.588 197.693 352.944 197.173 352.449 196.628C351.433 195.513 351.136 194.274 351.061 193.58C351.061 193.505 351.061 193.456 351.061 193.382C351.061 193.307 351.061 193.258 351.061 193.208C351.061 193.208 351.061 193.084 351.061 193.059C351.061 193.01 351.061 192.96 351.061 192.96C351.061 192.96 351.061 192.96 351.012 192.96C350.863 192.911 350.368 192.787 349.699 192.613C349.649 192.613 349.599 192.613 349.55 192.589C349.104 192.49 348.608 192.341 348.113 192.217C347.989 192.192 347.865 192.143 347.741 192.118C347.667 192.118 347.618 192.093 347.568 192.068C347.246 191.994 346.949 191.895 346.676 191.82C346.453 191.771 346.23 191.697 346.057 191.647C345.958 191.647 345.883 191.597 345.784 191.573C345.561 191.498 345.363 191.449 345.239 191.424C345.14 191.399 345.09 191.374 345.09 191.374C343.034 190.829 342.365 189.442 342.365 189.442C342.365 189.442 344.818 184.536 347.444 181.066C348.163 180.125 348.881 179.282 349.6 178.688C352.87 175.888 357.552 179.605 366.744 183.916C375.96 188.228 384.334 191.498 385.449 192.663C385.721 192.911 385.92 193.357 386.043 193.902C386.341 194.943 386.44 196.281 386.465 197.247C386.489 197.941 386.465 198.412 386.465 198.412C386.465 198.412 387.158 202.252 385.82 205.969C384.483 209.686 381.039 213.18 378.215 210.999L378.264 211.024Z" fill="#F8C89E"/>
<path d="M352.176 196.033L352.424 196.652C352.324 196.454 352.25 196.256 352.176 196.033Z" fill="#B834C0"/>
<g style="mix-blend-mode:multiply" opacity="0.3">
<path d="M378.313 210.826C378.61 209.612 380.221 203.045 379.799 199.428C379.354 195.413 379.428 191.969 376.802 190.21C374.176 188.426 372.788 187.658 372.194 188.475C371.599 189.293 372.739 197.42 372.144 201.112C371.549 204.804 371.054 207.877 371.054 207.877L370.41 205.994H370.385L369.344 206.589C369.344 206.589 371.252 202.5 371.252 197.99C371.252 193.406 370.806 188.153 370.806 188.153C370.806 188.153 368.031 185.601 366.594 185.7C365.158 185.774 363.027 190.458 361.788 193.902C360.624 197.123 360.5 198.436 360.475 198.585V198.486L360.277 197.792V197.668L360.252 197.619L359.286 198.312C359.286 198.312 361.937 193.01 361.937 189.541C361.937 186.072 357.775 182.132 356.462 181.389C355.148 180.62 349.921 183.569 349.103 185.18C348.36 186.617 350.516 190.928 350.961 192.985C350.961 193.084 350.986 193.158 351.011 193.233C351.011 193.233 351.011 193.406 351.036 193.481C351.036 193.481 351.036 193.456 351.036 193.431C350.937 193.233 350.639 192.935 349.698 192.663C349.648 192.663 349.599 192.663 349.549 192.638C349.103 192.539 348.608 192.39 348.112 192.266C347.988 192.242 347.865 192.192 347.741 192.167C347.666 192.167 347.617 192.143 347.567 192.118C347.245 192.043 346.948 191.944 346.675 191.87C346.452 191.82 346.229 191.746 346.056 191.697C345.957 191.672 345.858 191.647 345.784 191.622C345.362 191.498 345.09 191.424 345.09 191.424C345.09 191.424 346.378 186.84 347.518 185.849C348.385 185.081 347.889 182.727 347.443 181.116C348.162 180.174 348.88 179.332 349.599 178.737C352.869 175.937 357.552 179.654 366.743 183.966C375.959 188.277 384.333 191.548 385.448 192.712C385.721 192.96 385.919 193.406 386.043 193.951C385.919 193.778 383.342 191.35 382.029 192.564C380.667 193.803 380.865 197.99 380.493 201.484C380.146 204.631 378.66 209.81 378.338 210.851L378.313 210.826Z" fill="#B834C0"/>
</g>
<path d="M386.465 197.247C386.39 197.098 385.102 194.893 383.591 193.728C382.055 192.564 380.37 199.601 380.271 199.997C380.271 199.7 379.726 192.465 376.951 190.73C374.077 188.921 371.922 194.274 371.922 194.274C371.922 194.274 370.311 190.036 367.413 187.955C364.514 185.874 361.491 194.868 361.491 194.868C361.491 194.868 363.796 189.442 360.723 186.939C357.676 184.412 354.703 185.13 354.084 185.477C353.489 185.799 351.21 192.713 352.201 196.008L351.036 193.035L350.987 192.936C350.987 192.936 348.831 187.013 348.98 185.75C349.129 184.486 347.741 185.031 346.701 186.964C345.958 188.351 345.462 190.383 345.239 191.424C345.14 191.399 345.09 191.374 345.09 191.374C343.034 190.829 342.365 189.442 342.365 189.442C342.365 189.442 344.818 184.536 347.444 181.066C348.163 180.125 348.881 179.282 349.6 178.688C352.87 175.888 357.552 179.605 366.744 183.916C375.96 188.228 384.334 191.498 385.449 192.663C385.721 192.911 385.92 193.357 386.043 193.902C386.341 194.943 386.44 196.281 386.465 197.247Z" fill="#FFE9A9"/>
</g>
</svg>
